<svg width="784" height="624" viewBox="0 0 784 624" fill="none" xmlns="http://www.w3.org/2000/svg">
<g filter="url(#filter0_ddiii_71_110)">
<path d="M135.856 258.904C153.442 256.302 168.269 257.507 180.336 262.517C192.529 267.358 202.182 275.444 209.294 286.775C216.533 297.936 221.377 311.792 223.825 328.343C227.936 356.125 224.967 377.403 214.922 392.179C204.876 406.954 187.513 416.168 162.834 419.819L153.081 421.262C145.839 422.333 139.006 422.589 132.581 422.029C126.155 421.47 120.294 419.619 114.996 416.477C109.677 413.186 105.163 408.19 101.453 401.491C97.7441 394.791 95.0587 385.826 93.3971 374.595C91.8449 364.103 91.9044 354.806 93.5753 346.706C95.394 338.585 97.959 331.938 101.271 326.766C104.583 321.595 107.789 318.252 110.887 316.736L109.156 312.688L105.388 313.246C98.5897 314.252 92.8783 312.907 88.2543 309.212C83.7562 305.347 80.8869 299.731 79.646 292.364C78.4051 284.997 79.4517 278.801 82.7858 273.777C86.2459 268.584 91.3751 265.485 98.1727 264.479L135.856 258.904ZM134.813 303.909C132.005 304.325 129.961 305.307 128.68 306.855C127.525 308.234 127.188 310.55 127.669 313.801L135.31 365.449C135.769 368.553 136.751 370.597 138.256 371.582C139.908 372.546 142.138 372.82 144.946 372.405L156.916 370.634C164.453 369.519 170.05 367.029 173.706 363.166C177.363 359.303 179.633 354.739 180.515 349.474C181.523 344.039 181.6 338.44 180.748 332.677C179.895 326.914 178.189 321.503 175.629 316.446C173.216 311.366 169.689 307.433 165.049 304.646C160.408 301.86 154.319 301.023 146.783 302.138L134.813 303.909Z" fill="#FEDE8D"/>
<path d="M135.856 258.904C153.442 256.302 168.269 257.507 180.336 262.517C192.529 267.358 202.182 275.444 209.294 286.775C216.533 297.936 221.377 311.792 223.825 328.343C227.936 356.125 224.967 377.403 214.922 392.179C204.876 406.954 187.513 416.168 162.834 419.819L153.081 421.262C145.839 422.333 139.006 422.589 132.581 422.029C126.155 421.47 120.294 419.619 114.996 416.477C109.677 413.186 105.163 408.19 101.453 401.491C97.7441 394.791 95.0587 385.826 93.3971 374.595C91.8449 364.103 91.9044 354.806 93.5753 346.706C95.394 338.585 97.959 331.938 101.271 326.766C104.583 321.595 107.789 318.252 110.887 316.736L109.156 312.688L105.388 313.246C98.5897 314.252 92.8783 312.907 88.2543 309.212C83.7562 305.347 80.8869 299.731 79.646 292.364C78.4051 284.997 79.4517 278.801 82.7858 273.777C86.2459 268.584 91.3751 265.485 98.1727 264.479L135.856 258.904ZM134.813 303.909C132.005 304.325 129.961 305.307 128.68 306.855C127.525 308.234 127.188 310.55 127.669 313.801L135.31 365.449C135.769 368.553 136.751 370.597 138.256 371.582C139.908 372.546 142.138 372.82 144.946 372.405L156.916 370.634C164.453 369.519 170.05 367.029 173.706 363.166C177.363 359.303 179.633 354.739 180.515 349.474C181.523 344.039 181.6 338.44 180.748 332.677C179.895 326.914 178.189 321.503 175.629 316.446C173.216 311.366 169.689 307.433 165.049 304.646C160.408 301.86 154.319 301.023 146.783 302.138L134.813 303.909Z" fill="url(#paint0_linear_71_110)" fill-opacity="0.3" style="mix-blend-mode:overlay"/>
<path d="M210.189 225.846C209.248 219.491 210.414 214.109 213.688 209.697C217.087 205.117 222.259 202.312 229.204 201.283C236.593 200.189 242.345 201.3 246.461 204.617C250.724 207.912 253.326 212.737 254.267 219.091C255.187 225.298 254.084 230.596 250.958 234.985C247.959 239.204 242.765 241.861 235.376 242.956C228.135 244.028 222.32 243.002 217.931 239.876C213.667 236.581 211.087 231.904 210.189 225.846Z" fill="#FEDE8D"/>
<path d="M210.189 225.846C209.248 219.491 210.414 214.109 213.688 209.697C217.087 205.117 222.259 202.312 229.204 201.283C236.593 200.189 242.345 201.3 246.461 204.617C250.724 207.912 253.326 212.737 254.267 219.091C255.187 225.298 254.084 230.596 250.958 234.985C247.959 239.204 242.765 241.861 235.376 242.956C228.135 244.028 222.32 243.002 217.931 239.876C213.667 236.581 211.087 231.904 210.189 225.846Z" fill="url(#paint1_linear_71_110)" fill-opacity="0.3" style="mix-blend-mode:overlay"/>
<path d="M253.333 364.205C246.388 365.234 240.931 364.079 236.963 360.74C232.995 357.401 230.585 352.85 229.731 347.087L218.504 271.278C217.563 264.924 218.518 259.648 221.37 255.45C224.221 251.252 229.12 248.639 236.065 247.611C243.011 246.582 248.456 247.663 252.402 250.854C256.496 254.023 258.992 258.637 259.889 264.696L271.182 340.948C272.035 346.711 270.9 351.787 267.774 356.177C264.797 360.544 259.983 363.22 253.333 364.205Z" fill="#FEDE8D"/>
<path d="M253.333 364.205C246.388 365.234 240.931 364.079 236.963 360.74C232.995 357.401 230.585 352.85 229.731 347.087L218.504 271.278C217.563 264.924 218.518 259.648 221.37 255.45C224.221 251.252 229.12 248.639 236.065 247.611C243.011 246.582 248.456 247.663 252.402 250.854C256.496 254.023 258.992 258.637 259.889 264.696L271.182 340.948C272.035 346.711 270.9 351.787 267.774 356.177C264.797 360.544 259.983 363.22 253.333 364.205Z" fill="url(#paint2_linear_71_110)" fill-opacity="0.3" style="mix-blend-mode:overlay"/>
<path d="M349.257 242.371C356.514 241.176 362.025 242.241 365.789 245.567C369.671 248.728 372.023 252.799 372.843 257.779L384.133 324.983C386.713 339.76 386.938 352.658 384.807 363.679C382.819 374.677 378 383.583 370.352 390.397C362.847 397.188 352.051 401.743 337.962 404.064C329.282 405.494 321.729 405.789 315.306 404.947C309.024 404.082 302.792 402.184 296.609 399.256C291.208 396.638 287.008 392.433 284.008 386.642C281.008 380.851 280.984 374.497 283.937 367.579C285.865 363.315 288.278 360.214 291.174 358.275C294.212 356.313 297.249 355.228 300.285 355.02C303.439 354.647 306.248 354.841 308.712 355.605C314.092 357.203 318.228 358.35 321.119 359.043C324.129 359.57 327.412 359.54 330.97 358.954C336.235 358.087 340.342 355.511 343.29 351.225C346.381 346.915 347.375 341.416 346.274 334.728L343.425 317.438L339.583 318.071C339.829 325.777 337.896 332.235 333.784 337.443C329.791 342.486 323.669 345.687 315.415 347.047C309.154 348.078 302.776 347.521 296.284 345.375C289.791 343.228 284.061 339.056 279.094 332.859C274.127 326.661 270.717 317.941 268.865 306.699C266.146 290.191 267.747 277.284 273.668 267.977C279.59 258.671 288.313 253.068 299.84 251.169C307.809 249.856 315.085 251.434 321.668 255.904C328.228 260.232 332.293 267.163 333.864 276.698L334.468 276.378L332.499 264.425C331.679 259.445 332.53 254.846 335.051 250.631C337.691 246.249 342.426 243.496 349.257 242.371ZM317.49 283.779C312.652 284.576 309.01 285.981 306.564 287.991C304.26 289.979 303.448 293.036 304.128 297.163C305.394 304.847 311.15 307.846 321.396 306.158C328.084 305.056 332.628 303.357 335.027 301.062C337.426 298.767 338.297 295.626 337.641 291.642C336.961 287.515 335.069 284.903 331.965 283.807C329.003 282.687 324.178 282.678 317.49 283.779Z" fill="#FEDE8D"/>
<path d="M349.257 242.371C356.514 241.176 362.025 242.241 365.789 245.567C369.671 248.728 372.023 252.799 372.843 257.779L384.133 324.983C386.713 339.76 386.938 352.658 384.807 363.679C382.819 374.677 378 383.583 370.352 390.397C362.847 397.188 352.051 401.743 337.962 404.064C329.282 405.494 321.729 405.789 315.306 404.947C309.024 404.082 302.792 402.184 296.609 399.256C291.208 396.638 287.008 392.433 284.008 386.642C281.008 380.851 280.984 374.497 283.937 367.579C285.865 363.315 288.278 360.214 291.174 358.275C294.212 356.313 297.249 355.228 300.285 355.02C303.439 354.647 306.248 354.841 308.712 355.605C314.092 357.203 318.228 358.35 321.119 359.043C324.129 359.57 327.412 359.54 330.97 358.954C336.235 358.087 340.342 355.511 343.29 351.225C346.381 346.915 347.375 341.416 346.274 334.728L343.425 317.438L339.583 318.071C339.829 325.777 337.896 332.235 333.784 337.443C329.791 342.486 323.669 345.687 315.415 347.047C309.154 348.078 302.776 347.521 296.284 345.375C289.791 343.228 284.061 339.056 279.094 332.859C274.127 326.661 270.717 317.941 268.865 306.699C266.146 290.191 267.747 277.284 273.668 267.977C279.59 258.671 288.313 253.068 299.84 251.169C307.809 249.856 315.085 251.434 321.668 255.904C328.228 260.232 332.293 267.163 333.864 276.698L334.468 276.378L332.499 264.425C331.679 259.445 332.53 254.846 335.051 250.631C337.691 246.249 342.426 243.496 349.257 242.371ZM317.49 283.779C312.652 284.576 309.01 285.981 306.564 287.991C304.26 289.979 303.448 293.036 304.128 297.163C305.394 304.847 311.15 307.846 321.396 306.158C328.084 305.056 332.628 303.357 335.027 301.062C337.426 298.767 338.297 295.626 337.641 291.642C336.961 287.515 335.069 284.903 331.965 283.807C329.003 282.687 324.178 282.678 317.49 283.779Z" fill="url(#paint3_linear_71_110)" fill-opacity="0.3" style="mix-blend-mode:overlay"/>
<path d="M475.599 221.405C483.69 220.745 489.656 222.415 493.495 226.413C497.48 230.241 499.699 234.93 500.152 240.482L506.503 315.423C508.007 331.909 507.089 346.117 503.75 358.048C500.57 369.965 494.466 379.326 485.439 386.131C476.57 392.922 464.283 396.958 448.577 398.239C438.9 399.028 430.567 398.67 423.577 397.164C416.746 395.645 410.061 392.995 403.525 389.216C397.821 385.849 393.58 380.845 390.803 374.205C388.026 367.564 388.574 360.572 392.446 353.229C394.953 348.713 397.886 345.519 401.247 343.648C404.766 341.764 408.205 340.846 411.563 340.892C415.065 340.766 418.138 341.233 420.779 342.296C426.552 344.54 430.997 346.173 434.114 347.197C437.378 348.048 440.993 348.313 444.959 347.99C450.829 347.511 455.578 345.047 459.208 340.599C462.997 336.138 464.587 330.179 463.979 322.723L462.407 303.448L458.124 303.797C457.699 312.296 454.99 319.224 449.997 324.582C445.15 329.768 438.126 332.736 428.924 333.486C421.944 334.055 414.98 332.867 408.032 329.92C401.085 326.974 395.159 321.867 390.255 314.602C385.35 307.336 382.387 297.437 381.365 284.904C379.865 266.501 382.791 252.449 390.145 242.746C397.498 233.044 407.6 227.668 420.45 226.62C429.334 225.896 437.194 228.29 444.032 233.801C450.856 239.153 454.702 247.143 455.569 257.772L456.263 257.477L455.176 244.15C454.724 238.598 456.075 233.617 459.228 229.208C462.528 224.627 467.985 222.026 475.599 221.405ZM436.92 264.084C431.526 264.524 427.393 265.739 424.521 267.73C421.807 269.708 420.638 272.998 421.013 277.599C421.712 286.165 427.773 289.983 439.195 289.051C446.65 288.443 451.802 286.985 454.648 284.678C457.494 282.369 458.737 278.994 458.375 274.552C457.999 269.951 456.154 266.907 452.839 265.421C449.682 263.922 444.376 263.476 436.92 264.084Z" fill="#FEDE8D"/>
<path d="M475.599 221.405C483.69 220.745 489.656 222.415 493.495 226.413C497.48 230.241 499.699 234.93 500.152 240.482L506.503 315.423C508.007 331.909 507.089 346.117 503.75 358.048C500.57 369.965 494.466 379.326 485.439 386.131C476.57 392.922 464.283 396.958 448.577 398.239C438.9 399.028 430.567 398.67 423.577 397.164C416.746 395.645 410.061 392.995 403.525 389.216C397.821 385.849 393.58 380.845 390.803 374.205C388.026 367.564 388.574 360.572 392.446 353.229C394.953 348.713 397.886 345.519 401.247 343.648C404.766 341.764 408.205 340.846 411.563 340.892C415.065 340.766 418.138 341.233 420.779 342.296C426.552 344.54 430.997 346.173 434.114 347.197C437.378 348.048 440.993 348.313 444.959 347.99C450.829 347.511 455.578 345.047 459.208 340.599C462.997 336.138 464.587 330.179 463.979 322.723L462.407 303.448L458.124 303.797C457.699 312.296 454.99 319.224 449.997 324.582C445.15 329.768 438.126 332.736 428.924 333.486C421.944 334.055 414.98 332.867 408.032 329.92C401.085 326.974 395.159 321.867 390.255 314.602C385.35 307.336 382.387 297.437 381.365 284.904C379.865 266.501 382.791 252.449 390.145 242.746C397.498 233.044 407.6 227.668 420.45 226.62C429.334 225.896 437.194 228.29 444.032 233.801C450.856 239.153 454.702 247.143 455.569 257.772L456.263 257.477L455.176 244.15C454.724 238.598 456.075 233.617 459.228 229.208C462.528 224.627 467.985 222.026 475.599 221.405ZM436.92 264.084C431.526 264.524 427.393 265.739 424.521 267.73C421.807 269.708 420.638 272.998 421.013 277.599C421.712 286.165 427.773 289.983 439.195 289.051C446.65 288.443 451.802 286.985 454.648 284.678C457.494 282.369 458.737 278.994 458.375 274.552C457.999 269.951 456.154 266.907 452.839 265.421C449.682 263.922 444.376 263.476 436.92 264.084Z" fill="url(#paint4_linear_71_110)" fill-opacity="0.3" style="mix-blend-mode:overlay"/>
<path d="M504.345 249.322C503.893 242.914 505.468 237.637 509.07 233.489C512.81 229.182 518.182 226.782 525.185 226.288C532.636 225.763 538.286 227.312 542.136 230.935C546.134 234.546 548.359 239.556 548.811 245.964C549.252 252.223 547.746 257.421 544.294 261.558C540.98 265.535 535.597 267.786 528.147 268.311C520.845 268.826 515.125 267.357 510.988 263.905C506.99 260.293 504.775 255.432 504.345 249.322Z" fill="#FEDE8D"/>
<path d="M504.345 249.322C503.893 242.914 505.468 237.637 509.07 233.489C512.81 229.182 518.182 226.782 525.185 226.288C532.636 225.763 538.286 227.312 542.136 230.935C546.134 234.546 548.359 239.556 548.811 245.964C549.252 252.223 547.746 257.421 544.294 261.558C540.98 265.535 535.597 267.786 528.147 268.311C520.845 268.826 515.125 267.357 510.988 263.905C506.99 260.293 504.775 255.432 504.345 249.322Z" fill="url(#paint5_linear_71_110)" fill-opacity="0.3" style="mix-blend-mode:overlay"/>
<path d="M536.763 390.58C529.759 391.074 524.407 389.504 520.706 385.871C517.006 382.238 514.951 377.516 514.541 371.704L509.154 295.258C508.703 288.85 510.059 283.663 513.224 279.696C516.389 275.729 521.474 273.499 528.477 273.005C535.481 272.512 540.828 274.007 544.518 277.491C548.357 280.964 550.492 285.756 550.922 291.866L556.341 368.759C556.75 374.57 555.229 379.545 551.776 383.681C548.473 387.808 543.469 390.107 536.763 390.58Z" fill="#FEDE8D"/>
<path d="M536.763 390.58C529.759 391.074 524.407 389.504 520.706 385.871C517.006 382.238 514.951 377.516 514.541 371.704L509.154 295.258C508.703 288.85 510.059 283.663 513.224 279.696C516.389 275.729 521.474 273.499 528.477 273.005C535.481 272.512 540.828 274.007 544.518 277.491C548.357 280.964 550.492 285.756 550.922 291.866L556.341 368.759C556.75 374.57 555.229 379.545 551.776 383.681C548.473 387.808 543.469 390.107 536.763 390.58Z" fill="url(#paint6_linear_71_110)" fill-opacity="0.3" style="mix-blend-mode:overlay"/>
<path d="M580.547 368.493C573.976 368.637 568.632 366.811 564.514 363.016C560.543 359.068 558.494 354.182 558.367 348.357L556.749 274.204C556.612 267.931 558.363 262.589 562.002 258.176C565.641 253.763 570.971 251.48 577.99 251.327C584.86 251.177 590.135 253.229 593.814 257.482C597.493 261.735 599.404 267.147 599.548 273.718L599.792 284.92L603.824 284.832C603.639 276.319 604.985 269.565 607.865 264.571C610.894 259.574 614.775 255.978 619.509 253.783C624.239 251.439 628.994 250.214 633.773 250.11C645.273 249.859 653.803 253.856 659.362 262.103C664.918 270.2 667.862 281.865 668.194 297.099L669.26 345.937C669.387 351.762 667.553 356.733 663.758 360.85C659.96 364.818 654.775 366.873 648.204 367.017C641.483 367.163 636.064 365.339 631.946 361.544C627.975 357.596 625.926 352.71 625.799 346.885L624.934 307.233C624.816 301.856 623.68 297.697 621.523 294.756C619.517 291.811 616.572 290.381 612.689 290.466C608.208 290.563 604.958 292.278 602.939 295.609C601.069 298.937 600.19 303.141 600.3 308.218L601.156 347.423C601.283 353.248 599.524 358.217 595.878 362.331C592.229 366.296 587.119 368.35 580.547 368.493Z" fill="#FEDE8D"/>
<path d="M580.547 368.493C573.976 368.637 568.632 366.811 564.514 363.016C560.543 359.068 558.494 354.182 558.367 348.357L556.749 274.204C556.612 267.931 558.363 262.589 562.002 258.176C565.641 253.763 570.971 251.48 577.99 251.327C584.86 251.177 590.135 253.229 593.814 257.482C597.493 261.735 599.404 267.147 599.548 273.718L599.792 284.92L603.824 284.832C603.639 276.319 604.985 269.565 607.865 264.571C610.894 259.574 614.775 255.978 619.509 253.783C624.239 251.439 628.994 250.214 633.773 250.11C645.273 249.859 653.803 253.856 659.362 262.103C664.918 270.2 667.862 281.865 668.194 297.099L669.26 345.937C669.387 351.762 667.553 356.733 663.758 360.85C659.96 364.818 654.775 366.873 648.204 367.017C641.483 367.163 636.064 365.339 631.946 361.544C627.975 357.596 625.926 352.71 625.799 346.885L624.934 307.233C624.816 301.856 623.68 297.697 621.523 294.756C619.517 291.811 616.572 290.381 612.689 290.466C608.208 290.563 604.958 292.278 602.939 295.609C601.069 298.937 600.19 303.141 600.3 308.218L601.156 347.423C601.283 353.248 599.524 358.217 595.878 362.331C592.229 366.296 587.119 368.35 580.547 368.493Z" fill="url(#paint7_linear_71_110)" fill-opacity="0.3" style="mix-blend-mode:overlay"/>
<path d="M668.392 269.37C667.789 266.105 668.459 263.347 670.403 261.097C672.322 258.716 675.765 257.067 680.731 256.15C684.354 255.481 687.654 254.939 690.631 254.524C693.717 253.954 695.731 253.582 696.67 253.409L693.741 245.439C693.008 245.98 691.641 246.841 689.638 248.021C687.611 249.071 684.585 249.967 680.559 250.711C673.983 251.925 667.953 251.215 662.471 248.58C656.964 245.815 653.511 240.644 652.112 233.067C650.64 225.099 651.824 218.734 655.663 213.972C659.637 209.186 665.314 206.111 672.695 204.748C680.211 203.36 686.612 204.204 691.898 207.281C697.185 210.357 700.564 215.879 702.036 223.848C702.904 228.55 703.589 233.76 704.089 239.476C704.7 245.037 704.603 250.526 703.799 255.942C703.13 261.334 701.285 265.998 698.264 269.933C695.354 273.712 690.812 276.172 684.639 277.312C679.673 278.229 675.881 277.984 673.261 276.576C670.618 275.038 668.995 272.636 668.392 269.37Z" fill="#FEDE8D"/>
<path d="M668.392 269.37C667.789 266.105 668.459 263.347 670.403 261.097C672.322 258.716 675.765 257.067 680.731 256.15C684.354 255.481 687.654 254.939 690.631 254.524C693.717 253.954 695.731 253.582 696.67 253.409L693.741 245.439C693.008 245.98 691.641 246.841 689.638 248.021C687.611 249.071 684.585 249.967 680.559 250.711C673.983 251.925 667.953 251.215 662.471 248.58C656.964 245.815 653.511 240.644 652.112 233.067C650.64 225.099 651.824 218.734 655.663 213.972C659.637 209.186 665.314 206.111 672.695 204.748C680.211 203.36 686.612 204.204 691.898 207.281C697.185 210.357 700.564 215.879 702.036 223.848C702.904 228.55 703.589 233.76 704.089 239.476C704.7 245.037 704.603 250.526 703.799 255.942C703.13 261.334 701.285 265.998 698.264 269.933C695.354 273.712 690.812 276.172 684.639 277.312C679.673 278.229 675.881 277.984 673.261 276.576C670.618 275.038 668.995 272.636 668.392 269.37Z" fill="url(#paint8_linear_71_110)" fill-opacity="0.3" style="mix-blend-mode:overlay"/>
<path d="M184.015 463.289C178.093 464.681 172.834 464.105 168.236 461.561C163.757 458.99 160.808 454.684 159.388 448.644C157.996 442.722 158.54 437.595 161.021 433.262C163.593 428.783 168.195 425.764 174.827 424.205L251.396 406.205C258.028 404.645 263.434 405.312 267.613 408.204C271.883 410.949 274.714 415.283 276.106 421.205C277.526 427.245 276.745 432.428 273.762 436.754C270.898 441.051 266.505 443.896 260.584 445.288C256.557 446.235 253.202 446.586 250.52 446.342C247.929 445.951 245.724 445.345 243.906 444.522C242.06 443.581 240.329 442.864 238.713 442.369C237.069 441.755 235.181 441.699 233.049 442.2L232.202 445.774C232.926 446.729 234.117 448.073 235.775 449.808C237.405 451.425 239.184 453.944 241.113 457.364C243.015 460.667 244.689 465.398 246.137 471.556L258.207 522.898C259.348 527.754 258.459 532.212 255.539 536.273C252.738 540.306 248.732 542.935 243.521 544.16C238.191 545.413 233.315 544.872 228.891 542.538C224.587 540.175 221.863 536.566 220.722 531.71L208.652 480.368C207.204 474.21 206.596 469.229 206.826 465.425C207.029 461.503 207.5 458.455 208.239 456.282C209.068 453.962 209.595 452.214 209.818 451.036L207.29 448.256C205.158 448.757 203.492 449.649 202.294 450.93C201.068 452.093 199.838 453.507 198.604 455.172C197.343 456.718 195.64 458.244 193.494 459.748C191.32 461.134 188.16 462.314 184.015 463.289Z" fill="#FEDE8D"/>
<path d="M184.015 463.289C178.093 464.681 172.834 464.105 168.236 461.561C163.757 458.99 160.808 454.684 159.388 448.644C157.996 442.722 158.54 437.595 161.021 433.262C163.593 428.783 168.195 425.764 174.827 424.205L251.396 406.205C258.028 404.645 263.434 405.312 267.613 408.204C271.883 410.949 274.714 415.283 276.106 421.205C277.526 427.245 276.745 432.428 273.762 436.754C270.898 441.051 266.505 443.896 260.584 445.288C256.557 446.235 253.202 446.586 250.52 446.342C247.929 445.951 245.724 445.345 243.906 444.522C242.06 443.581 240.329 442.864 238.713 442.369C237.069 441.755 235.181 441.699 233.049 442.2L232.202 445.774C232.926 446.729 234.117 448.073 235.775 449.808C237.405 451.425 239.184 453.944 241.113 457.364C243.015 460.667 244.689 465.398 246.137 471.556L258.207 522.898C259.348 527.754 258.459 532.212 255.539 536.273C252.738 540.306 248.732 542.935 243.521 544.16C238.191 545.413 233.315 544.872 228.891 542.538C224.587 540.175 221.863 536.566 220.722 531.71L208.652 480.368C207.204 474.21 206.596 469.229 206.826 465.425C207.029 461.503 207.5 458.455 208.239 456.282C209.068 453.962 209.595 452.214 209.818 451.036L207.29 448.256C205.158 448.757 203.492 449.649 202.294 450.93C201.068 452.093 199.838 453.507 198.604 455.172C197.343 456.718 195.64 458.244 193.494 459.748C191.32 461.134 188.16 462.314 184.015 463.289Z" fill="url(#paint9_linear_71_110)" fill-opacity="0.3" style="mix-blend-mode:overlay"/>
<path d="M272.028 402.108C271.362 396.362 272.565 391.549 275.637 387.672C278.827 383.645 283.563 381.268 289.844 380.54C296.526 379.765 301.672 380.929 305.283 384.032C309.026 387.12 311.231 391.537 311.898 397.283C312.548 402.896 311.404 407.634 308.466 411.496C305.646 415.209 300.895 417.452 294.213 418.227C287.664 418.986 282.459 417.897 278.597 414.958C274.853 411.871 272.663 407.588 272.028 402.108Z" fill="#FEDE8D"/>
<path d="M272.028 402.108C271.362 396.362 272.565 391.549 275.637 387.672C278.827 383.645 283.563 381.268 289.844 380.54C296.526 379.765 301.672 380.929 305.283 384.032C309.026 387.12 311.231 391.537 311.898 397.283C312.548 402.896 311.404 407.634 308.466 411.496C305.646 415.209 300.895 417.452 294.213 418.227C287.664 418.986 282.459 417.897 278.597 414.958C274.853 411.871 272.663 407.588 272.028 402.108Z" fill="url(#paint10_linear_71_110)" fill-opacity="0.3" style="mix-blend-mode:overlay"/>
<path d="M306.924 527.881C300.643 528.61 295.764 527.414 292.287 524.296C288.811 521.178 286.77 517.012 286.166 511.8L278.219 443.241C277.553 437.495 278.563 432.773 281.249 429.075C283.936 425.378 288.419 423.165 294.701 422.437C300.982 421.709 305.853 422.837 309.314 425.822C312.909 428.791 315.024 433.015 315.659 438.495L323.653 507.455C324.257 512.667 323.09 517.204 320.152 521.066C317.347 524.912 312.938 527.184 306.924 527.881Z" fill="#FEDE8D"/>
<path d="M306.924 527.881C300.643 528.61 295.764 527.414 292.287 524.296C288.811 521.178 286.77 517.012 286.166 511.8L278.219 443.241C277.553 437.495 278.563 432.773 281.249 429.075C283.936 425.378 288.419 423.165 294.701 422.437C300.982 421.709 305.853 422.837 309.314 425.822C312.909 428.791 315.024 433.015 315.659 438.495L323.653 507.455C324.257 512.667 323.09 517.204 320.152 521.066C317.347 524.912 312.938 527.184 306.924 527.881Z" fill="url(#paint11_linear_71_110)" fill-opacity="0.3" style="mix-blend-mode:overlay"/>
<path d="M349.852 516.003C343.83 516.626 338.833 515.385 334.859 512.279C331.006 509.026 328.809 504.79 328.269 499.571L321.394 433.127C320.812 427.507 321.993 422.583 324.937 418.356C328.015 414.115 332.699 411.669 338.988 411.018C345.144 410.381 349.962 411.844 353.442 415.406C356.921 418.968 358.965 423.694 359.575 429.582L360.613 439.619L364.227 439.245C363.05 427.87 364.641 419.725 369.002 414.81C373.349 409.762 379.069 406.87 386.161 406.136C395.261 405.195 402.243 407.313 407.107 412.49C411.971 417.667 414.874 424.806 415.816 433.906L419.429 433.532C418.64 425.904 419.288 419.751 421.373 415.071C423.459 410.392 426.345 406.915 430.032 404.64C433.839 402.217 437.884 400.784 442.166 400.341C450.865 399.441 457.436 400.857 461.88 404.59C466.458 408.31 469.709 413.586 471.634 420.42C473.558 427.255 474.971 435.021 475.871 443.72L480.025 483.867C480.565 489.086 479.216 493.689 475.976 497.676C472.857 501.516 468.353 503.74 462.465 504.349C456.577 504.959 451.646 503.71 447.673 500.605C443.685 497.366 441.422 493.136 440.882 487.917L437.205 452.387C436.707 447.569 435.717 443.885 434.235 441.333C432.754 438.781 430.207 437.692 426.593 438.066C422.712 438.468 420.322 440.203 419.422 443.271C418.656 446.326 418.509 450.129 418.98 454.679L422.615 489.808C423.155 495.027 421.939 499.616 418.967 503.575C415.982 507.401 411.545 509.618 405.657 510.228C399.635 510.851 394.637 509.61 390.664 506.504C386.81 503.251 384.614 499.015 384.074 493.796L380.397 458.266C379.898 453.448 378.908 449.763 377.427 447.211C375.946 444.66 373.465 443.564 369.986 443.924C366.105 444.325 363.782 446.054 363.016 449.109C362.384 452.15 362.303 455.945 362.774 460.495L366.409 495.624C366.949 500.843 365.8 505.425 362.962 509.371C360.111 513.183 355.741 515.393 349.852 516.003Z" fill="#FEDE8D"/>
<path d="M349.852 516.003C343.83 516.626 338.833 515.385 334.859 512.279C331.006 509.026 328.809 504.79 328.269 499.571L321.394 433.127C320.812 427.507 321.993 422.583 324.937 418.356C328.015 414.115 332.699 411.669 338.988 411.018C345.144 410.381 349.962 411.844 353.442 415.406C356.921 418.968 358.965 423.694 359.575 429.582L360.613 439.619L364.227 439.245C363.05 427.87 364.641 419.725 369.002 414.81C373.349 409.762 379.069 406.87 386.161 406.136C395.261 405.195 402.243 407.313 407.107 412.49C411.971 417.667 414.874 424.806 415.816 433.906L419.429 433.532C418.64 425.904 419.288 419.751 421.373 415.071C423.459 410.392 426.345 406.915 430.032 404.64C433.839 402.217 437.884 400.784 442.166 400.341C450.865 399.441 457.436 400.857 461.88 404.59C466.458 408.31 469.709 413.586 471.634 420.42C473.558 427.255 474.971 435.021 475.871 443.72L480.025 483.867C480.565 489.086 479.216 493.689 475.976 497.676C472.857 501.516 468.353 503.74 462.465 504.349C456.577 504.959 451.646 503.71 447.673 500.605C443.685 497.366 441.422 493.136 440.882 487.917L437.205 452.387C436.707 447.569 435.717 443.885 434.235 441.333C432.754 438.781 430.207 437.692 426.593 438.066C422.712 438.468 420.322 440.203 419.422 443.271C418.656 446.326 418.509 450.129 418.98 454.679L422.615 489.808C423.155 495.027 421.939 499.616 418.967 503.575C415.982 507.401 411.545 509.618 405.657 510.228C399.635 510.851 394.637 509.61 390.664 506.504C386.81 503.251 384.614 499.015 384.074 493.796L380.397 458.266C379.898 453.448 378.908 449.763 377.427 447.211C375.946 444.66 373.465 443.564 369.986 443.924C366.105 444.325 363.782 446.054 363.016 449.109C362.384 452.15 362.303 455.945 362.774 460.495L366.409 495.624C366.949 500.843 365.8 505.425 362.962 509.371C360.111 513.183 355.741 515.393 349.852 516.003Z" fill="url(#paint12_linear_71_110)" fill-opacity="0.3" style="mix-blend-mode:overlay"/>
<path d="M537.301 397.425C545.944 397.979 553.595 400.054 560.253 403.649C567.047 407.253 572.262 411.858 575.898 417.464C579.543 422.932 581.163 428.822 580.759 435.133C580.337 441.718 578.118 446.259 574.101 448.757C570.083 451.255 564.301 452.263 556.755 451.779L513.538 449.01C513.309 452.577 514.492 455.615 517.086 458.123C519.818 460.64 524.545 462.114 531.268 462.545C534.698 462.764 537.876 462.623 540.801 462.122C543.863 461.629 546.921 461.206 549.974 460.851C553.174 460.367 556.695 460.248 560.536 460.494C566.024 460.846 570.424 463.125 573.736 467.333C577.057 471.403 578.498 476.868 578.059 483.728C577.54 491.822 572.951 497.866 564.291 501.857C555.769 505.857 544.785 507.426 531.34 506.564C521.873 505.957 513.074 503.534 504.942 499.294C496.948 495.062 490.599 488.8 485.895 480.508C481.201 472.079 479.257 461.553 480.066 448.931C480.76 438.093 483.498 428.694 488.278 420.734C493.196 412.784 499.784 406.731 508.041 402.576C516.434 398.43 526.188 396.713 537.301 397.425ZM533.259 431.469C527.222 431.082 522.612 432.096 519.426 434.509C516.378 436.931 514.766 439.514 514.59 442.258L547.312 444.355C549.37 444.486 550.117 443.57 549.554 441.606C549.129 439.65 547.61 437.555 544.998 435.321C542.386 433.087 538.473 431.803 533.259 431.469Z" fill="#FEDE8D"/>
<path d="M537.301 397.425C545.944 397.979 553.595 400.054 560.253 403.649C567.047 407.253 572.262 411.858 575.898 417.464C579.543 422.932 581.163 428.822 580.759 435.133C580.337 441.718 578.118 446.259 574.101 448.757C570.083 451.255 564.301 452.263 556.755 451.779L513.538 449.01C513.309 452.577 514.492 455.615 517.086 458.123C519.818 460.64 524.545 462.114 531.268 462.545C534.698 462.764 537.876 462.623 540.801 462.122C543.863 461.629 546.921 461.206 549.974 460.851C553.174 460.367 556.695 460.248 560.536 460.494C566.024 460.846 570.424 463.125 573.736 467.333C577.057 471.403 578.498 476.868 578.059 483.728C577.54 491.822 572.951 497.866 564.291 501.857C555.769 505.857 544.785 507.426 531.34 506.564C521.873 505.957 513.074 503.534 504.942 499.294C496.948 495.062 490.599 488.8 485.895 480.508C481.201 472.079 479.257 461.553 480.066 448.931C480.76 438.093 483.498 428.694 488.278 420.734C493.196 412.784 499.784 406.731 508.041 402.576C516.434 398.43 526.188 396.713 537.301 397.425ZM533.259 431.469C527.222 431.082 522.612 432.096 519.426 434.509C516.378 436.931 514.766 439.514 514.59 442.258L547.312 444.355C549.37 444.486 550.117 443.57 549.554 441.606C549.129 439.65 547.61 437.555 544.998 435.321C542.386 433.087 538.473 431.803 533.259 431.469Z" fill="url(#paint13_linear_71_110)" fill-opacity="0.3" style="mix-blend-mode:overlay"/>
<path d="M297.834 245.537C292.427 246.652 287.68 245.915 283.593 243.327C279.506 240.738 276.941 236.917 275.899 231.863L256.673 138.595C255.606 133.424 256.355 128.735 258.92 124.531C261.601 120.302 265.704 117.618 271.229 116.479C277.106 115.268 282.053 116.086 286.071 118.934C290.182 121.64 292.759 125.52 293.801 130.574L313.1 224.194C314.142 229.248 313.181 233.796 310.215 237.838C307.368 241.856 303.24 244.423 297.834 245.537Z" fill="#FEDE8D"/>
<path d="M297.834 245.537C292.427 246.652 287.68 245.915 283.593 243.327C279.506 240.738 276.941 236.917 275.899 231.863L256.673 138.595C255.606 133.424 256.355 128.735 258.92 124.531C261.601 120.302 265.704 117.618 271.229 116.479C277.106 115.268 282.053 116.086 286.071 118.934C290.182 121.64 292.759 125.52 293.801 130.574L313.1 224.194C314.142 229.248 313.181 233.796 310.215 237.838C307.368 241.856 303.24 244.423 297.834 245.537Z" fill="url(#paint14_linear_71_110)" fill-opacity="0.3" style="mix-blend-mode:overlay"/>
<path d="M365.094 235.65C358.72 236.266 352.81 235.398 347.364 233.049C342.038 230.687 337.68 227.034 334.29 222.089C330.888 217.026 328.843 210.933 328.155 203.81L325.129 172.47L318.541 174.005C314.979 174.828 311.672 173.889 308.62 171.189C305.567 168.488 303.823 164.882 303.388 160.371C302.952 155.86 303.98 152.046 306.471 148.93C308.95 145.695 312.016 144.141 315.67 144.268L322.43 144.514L321.081 132.422C320.502 127.686 321.524 123.813 324.146 120.804C326.758 117.676 330.829 115.845 336.361 115.311C341.893 114.777 346.299 115.789 349.581 118.348C352.851 120.788 354.595 124.394 354.813 129.166L355.621 141.309L365.061 139.139C371.463 137.563 376.509 138.274 380.197 141.273C383.873 144.153 385.929 147.848 386.365 152.359C386.801 156.871 385.495 160.951 382.449 164.6C379.511 168.118 374.876 169.764 368.542 169.537L358.32 169.266L360.882 195.798C361.031 197.341 361.71 198.713 362.918 199.915C364.115 200.997 365.472 201.226 366.99 200.6C368.748 199.951 370.514 198.762 372.289 197.033C374.185 195.292 376.696 194.271 379.823 193.969C384.513 193.516 388.281 194.83 391.127 197.91C393.973 200.99 395.632 204.964 396.101 209.831C396.468 213.63 395.441 217.443 393.019 221.272C390.705 224.97 387.187 228.125 382.462 230.738C377.738 233.351 371.949 234.988 365.094 235.65Z" fill="#FEDE8D"/>
<path d="M365.094 235.65C358.72 236.266 352.81 235.398 347.364 233.049C342.038 230.687 337.68 227.034 334.29 222.089C330.888 217.026 328.843 210.933 328.155 203.81L325.129 172.47L318.541 174.005C314.979 174.828 311.672 173.889 308.62 171.189C305.567 168.488 303.823 164.882 303.388 160.371C302.952 155.86 303.98 152.046 306.471 148.93C308.95 145.695 312.016 144.141 315.67 144.268L322.43 144.514L321.081 132.422C320.502 127.686 321.524 123.813 324.146 120.804C326.758 117.676 330.829 115.845 336.361 115.311C341.893 114.777 346.299 115.789 349.581 118.348C352.851 120.788 354.595 124.394 354.813 129.166L355.621 141.309L365.061 139.139C371.463 137.563 376.509 138.274 380.197 141.273C383.873 144.153 385.929 147.848 386.365 152.359C386.801 156.871 385.495 160.951 382.449 164.6C379.511 168.118 374.876 169.764 368.542 169.537L358.32 169.266L360.882 195.798C361.031 197.341 361.71 198.713 362.918 199.915C364.115 200.997 365.472 201.226 366.99 200.6C368.748 199.951 370.514 198.762 372.289 197.033C374.185 195.292 376.696 194.271 379.823 193.969C384.513 193.516 388.281 194.83 391.127 197.91C393.973 200.99 395.632 204.964 396.101 209.831C396.468 213.63 395.441 217.443 393.019 221.272C390.705 224.97 387.187 228.125 382.462 230.738C377.738 233.351 371.949 234.988 365.094 235.65Z" fill="url(#paint15_linear_71_110)" fill-opacity="0.3" style="mix-blend-mode:overlay"/>
<path d="M384.66 136.734C384.598 133.734 385.569 131.373 387.574 129.651C389.576 127.809 392.797 126.841 397.236 126.749C400.476 126.682 403.417 126.68 406.059 126.746C408.819 126.688 410.618 126.651 411.458 126.633L410.041 119.1C409.329 119.475 408.02 120.043 406.115 120.803C404.208 121.442 401.455 121.8 397.855 121.875C391.976 121.997 386.843 120.483 382.456 117.334C378.067 114.064 375.799 108.95 375.655 101.991C375.502 94.6715 377.428 89.1697 381.433 85.4853C385.558 81.7983 390.919 79.8862 397.519 79.7489C404.238 79.609 409.674 81.2964 413.829 84.8111C417.983 88.3257 420.137 93.7425 420.289 101.062C420.379 105.381 420.237 110.125 419.865 115.295C419.61 120.342 418.751 125.221 417.289 129.933C415.946 134.642 413.686 138.53 410.509 141.597C407.45 144.542 403.16 146.072 397.641 146.187C393.201 146.279 389.944 145.506 387.87 143.869C385.792 142.112 384.723 139.733 384.66 136.734Z" fill="#FEDE8D"/>
<path d="M384.66 136.734C384.598 133.734 385.569 131.373 387.574 129.651C389.576 127.809 392.797 126.841 397.236 126.749C400.476 126.682 403.417 126.68 406.059 126.746C408.819 126.688 410.618 126.651 411.458 126.633L410.041 119.1C409.329 119.475 408.02 120.043 406.115 120.803C404.208 121.442 401.455 121.8 397.855 121.875C391.976 121.997 386.843 120.483 382.456 117.334C378.067 114.064 375.799 108.95 375.655 101.991C375.502 94.6715 377.428 89.1697 381.433 85.4853C385.558 81.7983 390.919 79.8862 397.519 79.7489C404.238 79.609 409.674 81.2964 413.829 84.8111C417.983 88.3257 420.137 93.7425 420.289 101.062C420.379 105.381 420.237 110.125 419.865 115.295C419.61 120.342 418.751 125.221 417.289 129.933C415.946 134.642 413.686 138.53 410.509 141.597C407.45 144.542 403.16 146.072 397.641 146.187C393.201 146.279 389.944 145.506 387.87 143.869C385.792 142.112 384.723 139.733 384.66 136.734Z" fill="url(#paint16_linear_71_110)" fill-opacity="0.3" style="mix-blend-mode:overlay"/>
<path d="M457.216 219.588C449.292 219.733 441.928 219.121 435.125 217.753C428.435 216.267 423.049 213.895 418.969 210.639C414.886 207.267 412.793 202.767 412.69 197.14C412.599 192.202 414.018 188.097 416.945 184.827C419.872 181.556 423.805 179.876 428.743 179.786C431.844 179.729 434.954 180.189 438.074 181.166C441.306 182.025 444.711 182.882 448.288 183.736C451.865 184.589 455.721 184.978 459.855 184.902C463.53 184.835 465.996 184.618 467.253 184.25C468.508 183.767 469.125 182.952 469.104 181.803C469.079 180.425 468.258 179.521 466.642 179.091C465.14 178.659 462.546 178.132 458.858 177.511L446.411 175.326C441.224 174.387 436.146 173.159 431.179 171.642C426.324 170.007 422.258 167.554 418.981 164.283C415.819 161.009 414.186 156.501 414.08 150.759C413.937 142.949 417.271 136.799 424.082 132.309C431.008 127.817 441.074 125.449 454.281 125.207C461.861 125.069 468.651 125.691 474.65 127.074C480.764 128.456 485.629 130.607 489.243 133.528C492.856 136.334 494.703 139.919 494.783 144.283C494.984 148.989 493.79 152.803 491.201 155.722C488.612 158.642 485.308 160.138 481.288 160.212C478.417 160.264 475.482 159.973 472.484 159.339C469.598 158.588 466.425 157.842 462.965 157.101C459.617 156.243 455.761 155.797 451.394 155.762C448.289 155.589 445.766 155.808 443.824 156.418C441.882 157.028 440.923 157.964 440.946 159.228C440.971 160.606 442.138 161.561 444.445 162.093C446.75 162.51 450.207 163.079 454.816 163.799L467.088 165.814C474.576 166.941 480.52 168.44 484.92 170.312C489.433 172.068 492.696 174.593 494.709 177.888C496.722 181.183 497.783 185.758 497.89 191.616C498.001 197.702 496.315 202.846 492.83 207.045C489.459 211.128 484.69 214.202 478.524 216.268C472.358 218.334 465.256 219.441 457.216 219.588Z" fill="#FEDE8D"/>
<path d="M457.216 219.588C449.292 219.733 441.928 219.121 435.125 217.753C428.435 216.267 423.049 213.895 418.969 210.639C414.886 207.267 412.793 202.767 412.69 197.14C412.599 192.202 414.018 188.097 416.945 184.827C419.872 181.556 423.805 179.876 428.743 179.786C431.844 179.729 434.954 180.189 438.074 181.166C441.306 182.025 444.711 182.882 448.288 183.736C451.865 184.589 455.721 184.978 459.855 184.902C463.53 184.835 465.996 184.618 467.253 184.25C468.508 183.767 469.125 182.952 469.104 181.803C469.079 180.425 468.258 179.521 466.642 179.091C465.14 178.659 462.546 178.132 458.858 177.511L446.411 175.326C441.224 174.387 436.146 173.159 431.179 171.642C426.324 170.007 422.258 167.554 418.981 164.283C415.819 161.009 414.186 156.501 414.08 150.759C413.937 142.949 417.271 136.799 424.082 132.309C431.008 127.817 441.074 125.449 454.281 125.207C461.861 125.069 468.651 125.691 474.65 127.074C480.764 128.456 485.629 130.607 489.243 133.528C492.856 136.334 494.703 139.919 494.783 144.283C494.984 148.989 493.79 152.803 491.201 155.722C488.612 158.642 485.308 160.138 481.288 160.212C478.417 160.264 475.482 159.973 472.484 159.339C469.598 158.588 466.425 157.842 462.965 157.101C459.617 156.243 455.761 155.797 451.394 155.762C448.289 155.589 445.766 155.808 443.824 156.418C441.882 157.028 440.923 157.964 440.946 159.228C440.971 160.606 442.138 161.561 444.445 162.093C446.75 162.51 450.207 163.079 454.816 163.799L467.088 165.814C474.576 166.941 480.52 168.44 484.92 170.312C489.433 172.068 492.696 174.593 494.709 177.888C496.722 181.183 497.783 185.758 497.89 191.616C498.001 197.702 496.315 202.846 492.83 207.045C489.459 211.128 484.69 214.202 478.524 216.268C472.358 218.334 465.256 219.441 457.216 219.588Z" fill="url(#paint17_linear_71_110)" fill-opacity="0.3" style="mix-blend-mode:overlay"/>
<path d="M578.396 394.309C578.388 389.463 579.312 384.979 581.169 380.855C583.165 376.601 586.28 373.25 590.516 370.803C594.755 368.222 600.17 367.017 606.76 367.189C613.485 367.364 618.829 368.849 622.794 371.644C626.897 374.308 629.766 377.815 631.402 382.164C633.177 386.383 633.933 390.911 633.673 395.749C633.423 400.184 632.641 404.336 631.329 408.205C630.017 412.073 628.5 416.071 626.777 420.198C625.058 424.191 623.461 428.658 621.987 433.599C620.516 438.406 619.496 443.965 618.928 450.275C618.388 455.51 616.807 459.372 614.185 461.86C611.566 464.215 608.24 465.339 604.205 465.234C600.036 465.125 596.705 463.827 594.212 461.34C591.72 458.852 590.41 454.915 590.281 449.529C590.042 443.197 589.313 437.593 588.095 432.716C586.88 427.705 585.518 423.161 584.009 419.084C582.504 414.872 581.197 410.801 580.088 406.869C578.979 402.937 578.415 398.75 578.396 394.309ZM602.664 524.344C594.729 524.137 588.597 521.891 584.267 517.606C579.941 513.186 577.869 507.48 578.052 500.486C578.237 493.358 580.607 487.633 585.161 483.31C589.849 478.991 596.094 476.933 603.895 477.137C611.426 477.333 617.353 479.708 621.676 484.262C626.002 488.681 628.072 494.455 627.886 501.583C627.704 508.577 625.405 514.17 620.989 518.361C616.573 522.553 610.465 524.547 602.664 524.344Z" fill="#FEDE8D"/>
<path d="M578.396 394.309C578.388 389.463 579.312 384.979 581.169 380.855C583.165 376.601 586.28 373.25 590.516 370.803C594.755 368.222 600.17 367.017 606.76 367.189C613.485 367.364 618.829 368.849 622.794 371.644C626.897 374.308 629.766 377.815 631.402 382.164C633.177 386.383 633.933 390.911 633.673 395.749C633.423 400.184 632.641 404.336 631.329 408.205C630.017 412.073 628.5 416.071 626.777 420.198C625.058 424.191 623.461 428.658 621.987 433.599C620.516 438.406 619.496 443.965 618.928 450.275C618.388 455.51 616.807 459.372 614.185 461.86C611.566 464.215 608.24 465.339 604.205 465.234C600.036 465.125 596.705 463.827 594.212 461.34C591.72 458.852 590.41 454.915 590.281 449.529C590.042 443.197 589.313 437.593 588.095 432.716C586.88 427.705 585.518 423.161 584.009 419.084C582.504 414.872 581.197 410.801 580.088 406.869C578.979 402.937 578.415 398.75 578.396 394.309ZM602.664 524.344C594.729 524.137 588.597 521.891 584.267 517.606C579.941 513.186 577.869 507.48 578.052 500.486C578.237 493.358 580.607 487.633 585.161 483.31C589.849 478.991 596.094 476.933 603.895 477.137C611.426 477.333 617.353 479.708 621.676 484.262C626.002 488.681 628.072 494.455 627.886 501.583C627.704 508.577 625.405 514.17 620.989 518.361C616.573 522.553 610.465 524.547 602.664 524.344Z" fill="url(#paint18_linear_71_110)" fill-opacity="0.3" style="mix-blend-mode:overlay"/>
</g>
<defs>
<filter id="filter0_ddiii_71_110" x="-25" y="-29" width="848.961" height="680.577" filterUnits="userSpaceOnUse" color-interpolation-filters="sRGB">
<feFlood flood-opacity="0" result="BackgroundImageFix"/>
<feColorMatrix in="SourceAlpha" type="matrix" values="0 0 0 0 0 0 0 0 0 0 0 0 0 0 0 0 0 0 127 0" result="hardAlpha"/>
<feOffset/>
<feGaussianBlur stdDeviation="39.5"/>
<feComposite in2="hardAlpha" operator="out"/>
<feColorMatrix type="matrix" values="0 0 0 0 0 0 0 0 0 0 0 0 0 0 0 0 0 0 0.3 0"/>
<feBlend mode="normal" in2="BackgroundImageFix" result="effect1_dropShadow_71_110"/>
<feColorMatrix in="SourceAlpha" type="matrix" values="0 0 0 0 0 0 0 0 0 0 0 0 0 0 0 0 0 0 127 0" result="hardAlpha"/>
<feOffset dy="18"/>
<feGaussianBlur stdDeviation="5.5"/>
<feComposite in2="hardAlpha" operator="out"/>
<feColorMatrix type="matrix" values="0 0 0 0 0 0 0 0 0 0 0 0 0 0 0 0 0 0 0.29 0"/>
<feBlend mode="normal" in2="effect1_dropShadow_71_110" result="effect2_dropShadow_71_110"/>
<feBlend mode="normal" in="SourceGraphic" in2="effect2_dropShadow_71_110" result="shape"/>
<feColorMatrix in="SourceAlpha" type="matrix" values="0 0 0 0 0 0 0 0 0 0 0 0 0 0 0 0 0 0 127 0" result="hardAlpha"/>
<feOffset dy="-10"/>
<feGaussianBlur stdDeviation="2"/>
<feComposite in2="hardAlpha" operator="arithmetic" k2="-1" k3="1"/>
<feColorMatrix type="matrix" values="0 0 0 0 0.795861 0 0 0 0 0.571784 0 0 0 0 0 0 0 0 0.21 0"/>
<feBlend mode="normal" in2="shape" result="effect3_innerShadow_71_110"/>
<feColorMatrix in="SourceAlpha" type="matrix" values="0 0 0 0 0 0 0 0 0 0 0 0 0 0 0 0 0 0 127 0" result="hardAlpha"/>
<feOffset dy="10"/>
<feGaussianBlur stdDeviation="2.5"/>
<feComposite in2="hardAlpha" operator="arithmetic" k2="-1" k3="1"/>
<feColorMatrix type="matrix" values="0 0 0 0 1 0 0 0 0 1 0 0 0 0 1 0 0 0 0.27 0"/>
<feBlend mode="normal" in2="effect3_innerShadow_71_110" result="effect4_innerShadow_71_110"/>
<feColorMatrix in="SourceAlpha" type="matrix" values="0 0 0 0 0 0 0 0 0 0 0 0 0 0 0 0 0 0 127 0" result="hardAlpha"/>
<feOffset/>
<feGaussianBlur stdDeviation="8.5"/>
<feComposite in2="hardAlpha" operator="arithmetic" k2="-1" k3="1"/>
<feColorMatrix type="matrix" values="0 0 0 0 0.992157 0 0 0 0 0.878431 0 0 0 0 0.588235 0 0 0 1 0"/>
<feBlend mode="normal" in2="effect4_innerShadow_71_110" result="effect5_innerShadow_71_110"/>
</filter>
<linearGradient id="paint0_linear_71_110" x1="143.943" y1="257.707" x2="167.818" y2="419.082" gradientUnits="userSpaceOnUse">
<stop stop-opacity="0"/>
<stop offset="1"/>
</linearGradient>
<linearGradient id="paint1_linear_71_110" x1="229.093" y1="201.3" x2="235.265" y2="242.972" gradientUnits="userSpaceOnUse">
<stop stop-opacity="0"/>
<stop offset="1"/>
</linearGradient>
<linearGradient id="paint2_linear_71_110" x1="236.176" y1="247.594" x2="253.444" y2="364.189" gradientUnits="userSpaceOnUse">
<stop stop-opacity="0"/>
<stop offset="1"/>
</linearGradient>
<linearGradient id="paint3_linear_71_110" x1="315.321" y1="247.961" x2="340.955" y2="403.571" gradientUnits="userSpaceOnUse">
<stop stop-opacity="0"/>
<stop offset="1"/>
</linearGradient>
<linearGradient id="paint4_linear_71_110" x1="437.768" y1="224.49" x2="451.914" y2="397.967" gradientUnits="userSpaceOnUse">
<stop stop-opacity="0"/>
<stop offset="1"/>
</linearGradient>
<linearGradient id="paint5_linear_71_110" x1="525.074" y1="226.296" x2="528.035" y2="268.319" gradientUnits="userSpaceOnUse">
<stop stop-opacity="0"/>
<stop offset="1"/>
</linearGradient>
<linearGradient id="paint6_linear_71_110" x1="528.589" y1="272.998" x2="536.874" y2="390.572" gradientUnits="userSpaceOnUse">
<stop stop-opacity="0"/>
<stop offset="1"/>
</linearGradient>
<linearGradient id="paint7_linear_71_110" x1="611.706" y1="250.591" x2="614.263" y2="367.757" gradientUnits="userSpaceOnUse">
<stop stop-opacity="0"/>
<stop offset="1"/>
</linearGradient>
<linearGradient id="paint8_linear_71_110" x1="672.695" y1="204.748" x2="686.048" y2="277.052" gradientUnits="userSpaceOnUse">
<stop stop-opacity="0"/>
<stop offset="1"/>
</linearGradient>
<linearGradient id="paint9_linear_71_110" x1="213.111" y1="415.205" x2="243.432" y2="544.181" gradientUnits="userSpaceOnUse">
<stop stop-opacity="0"/>
<stop offset="1"/>
</linearGradient>
<linearGradient id="paint10_linear_71_110" x1="289.744" y1="380.551" x2="294.112" y2="418.239" gradientUnits="userSpaceOnUse">
<stop stop-opacity="0"/>
<stop offset="1"/>
</linearGradient>
<linearGradient id="paint11_linear_71_110" x1="294.801" y1="422.425" x2="307.024" y2="527.87" gradientUnits="userSpaceOnUse">
<stop stop-opacity="0"/>
<stop offset="1"/>
</linearGradient>
<linearGradient id="paint12_linear_71_110" x1="395.194" y1="405.202" x2="406.058" y2="510.186" gradientUnits="userSpaceOnUse">
<stop stop-opacity="0"/>
<stop offset="1"/>
</linearGradient>
<linearGradient id="paint13_linear_71_110" x1="533.493" y1="397.181" x2="526.504" y2="506.254" gradientUnits="userSpaceOnUse">
<stop stop-opacity="0"/>
<stop offset="1"/>
</linearGradient>
<linearGradient id="paint14_linear_71_110" x1="271.493" y1="116.425" x2="298.098" y2="245.483" gradientUnits="userSpaceOnUse">
<stop stop-opacity="0"/>
<stop offset="1"/>
</linearGradient>
<linearGradient id="paint15_linear_71_110" x1="342.945" y1="114.675" x2="354.722" y2="236.652" gradientUnits="userSpaceOnUse">
<stop stop-opacity="0"/>
<stop offset="1"/>
</linearGradient>
<linearGradient id="paint16_linear_71_110" x1="397.519" y1="79.7489" x2="398.901" y2="146.16" gradientUnits="userSpaceOnUse">
<stop stop-opacity="0"/>
<stop offset="1"/>
</linearGradient>
<linearGradient id="paint17_linear_71_110" x1="454.023" y1="125.212" x2="455.752" y2="219.615" gradientUnits="userSpaceOnUse">
<stop stop-opacity="0"/>
<stop offset="1"/>
</linearGradient>
<linearGradient id="paint18_linear_71_110" x1="606.76" y1="367.189" x2="602.664" y2="524.344" gradientUnits="userSpaceOnUse">
<stop stop-opacity="0"/>
<stop offset="1"/>
</linearGradient>
</defs>
</svg>
