<svg width="784" height="624" viewBox="0 0 784 624" fill="none" xmlns="http://www.w3.org/2000/svg">
<g filter="url(#filter0_diii_71_110)">
<path d="M135.856 258.904C153.442 256.302 168.269 257.507 180.336 262.517C192.529 267.358 202.182 275.444 209.294 286.775C216.533 297.936 221.377 311.792 223.825 328.343C227.936 356.125 224.967 377.403 214.922 392.179C204.876 406.954 187.513 416.168 162.834 419.819L153.081 421.262C145.839 422.333 139.006 422.589 132.581 422.029C126.155 421.47 120.294 419.619 114.996 416.477C109.677 413.186 105.163 408.19 101.453 401.491C97.7441 394.791 95.0587 385.826 93.3971 374.595C91.8449 364.103 91.9044 354.806 93.5753 346.706C95.394 338.585 97.959 331.938 101.271 326.766C104.583 321.595 107.789 318.252 110.887 316.736L109.156 312.688L105.388 313.246C98.5897 314.252 92.8783 312.907 88.2543 309.212C83.7562 305.347 80.8869 299.731 79.646 292.364C78.4051 284.997 79.4517 278.801 82.7858 273.777C86.2459 268.584 91.3751 265.485 98.1727 264.479L135.856 258.904ZM134.813 303.909C132.005 304.325 129.961 305.307 128.68 306.855C127.525 308.234 127.188 310.55 127.669 313.801L135.31 365.449C135.769 368.553 136.751 370.597 138.256 371.582C139.908 372.546 142.138 372.82 144.946 372.405L156.916 370.634C164.453 369.519 170.05 367.029 173.706 363.166C177.363 359.303 179.633 354.739 180.515 349.474C181.523 344.039 181.6 338.44 180.748 332.677C179.895 326.914 178.189 321.503 175.629 316.446C173.216 311.366 169.689 307.433 165.049 304.646C160.408 301.86 154.319 301.023 146.783 302.138L134.813 303.909Z" fill="#FEDE8D"/>
<path d="M210.189 225.846C209.248 219.491 210.414 214.109 213.688 209.697C217.087 205.117 222.259 202.312 229.204 201.283C236.593 200.189 242.345 201.3 246.461 204.617C250.724 207.912 253.326 212.737 254.267 219.091C255.187 225.298 254.084 230.596 250.958 234.985C247.959 239.204 242.765 241.861 235.376 242.956C228.135 244.028 222.32 243.002 217.931 239.876C213.667 236.581 211.087 231.904 210.189 225.846Z" fill="#FEDE8D"/>
<path d="M253.333 364.205C246.388 365.234 240.931 364.079 236.963 360.74C232.995 357.401 230.585 352.85 229.731 347.087L218.504 271.278C217.563 264.924 218.518 259.648 221.37 255.45C224.221 251.252 229.12 248.639 236.065 247.611C243.011 246.582 248.456 247.663 252.402 250.854C256.496 254.023 258.992 258.637 259.889 264.696L271.182 340.948C272.035 346.711 270.9 351.787 267.774 356.177C264.797 360.544 259.983 363.22 253.333 364.205Z" fill="#FEDE8D"/>
<path d="M349.257 239.371C356.514 238.176 362.025 239.241 365.789 242.567C369.671 245.728 372.023 249.799 372.843 254.779L384.133 321.983C386.713 336.76 386.938 349.658 384.807 360.679C382.819 371.677 378 380.583 370.352 387.397C362.847 394.188 352.051 398.743 337.962 401.064C329.282 402.494 321.729 402.789 315.306 401.947C309.024 401.082 302.792 399.184 296.609 396.256C291.208 393.638 287.008 389.433 284.008 383.642C281.008 377.851 280.984 371.497 283.937 364.579C285.865 360.315 288.278 357.214 291.174 355.275C294.212 353.313 297.249 352.228 300.285 352.02C303.439 351.647 306.248 351.841 308.712 352.605C314.092 354.203 318.228 355.35 321.119 356.043C324.129 356.57 327.412 356.54 330.97 355.954C336.235 355.087 340.342 352.511 343.29 348.225C346.381 343.915 347.375 338.416 346.274 331.728L343.425 314.438L339.583 315.071C339.829 322.777 337.896 329.235 333.784 334.443C329.791 339.486 323.669 342.687 315.415 344.047C309.154 345.078 302.776 344.521 296.284 342.375C289.791 340.228 284.061 336.056 279.094 329.859C274.127 323.661 270.717 314.941 268.865 303.699C266.146 287.191 267.747 274.284 273.668 264.977C279.59 255.671 288.313 250.068 299.84 248.169C307.809 246.856 315.085 248.434 321.668 252.904C328.228 257.232 332.293 264.163 333.864 273.698L334.468 273.378L332.499 261.425C331.679 256.445 332.53 251.846 335.051 247.631C337.691 243.249 342.426 240.496 349.257 239.371ZM317.49 280.779C312.652 281.576 309.01 282.981 306.564 284.991C304.26 286.979 303.448 290.036 304.128 294.163C305.394 301.847 311.15 304.846 321.396 303.158C328.084 302.056 332.628 300.357 335.027 298.062C337.426 295.767 338.297 292.626 337.641 288.642C336.961 284.515 335.069 281.903 331.965 280.807C329.003 279.687 324.178 279.678 317.49 280.779Z" fill="#FEDE8D"/>
<path d="M475.599 221.405C483.69 220.745 489.656 222.415 493.495 226.413C497.48 230.241 499.699 234.93 500.152 240.482L506.503 315.423C508.007 331.909 507.089 346.117 503.75 358.048C500.57 369.965 494.466 379.326 485.439 386.131C476.57 392.922 464.283 396.958 448.577 398.239C438.9 399.028 430.567 398.67 423.577 397.164C416.746 395.645 410.061 392.995 403.525 389.216C397.821 385.849 393.58 380.845 390.803 374.205C388.026 367.564 388.574 360.572 392.446 353.229C394.953 348.713 397.886 345.519 401.247 343.648C404.766 341.764 408.205 340.846 411.563 340.892C415.065 340.766 418.138 341.233 420.779 342.296C426.552 344.54 430.997 346.173 434.114 347.197C437.378 348.048 440.993 348.313 444.959 347.99C450.829 347.511 455.578 345.047 459.208 340.599C462.997 336.138 464.587 330.179 463.979 322.723L462.407 303.448L458.124 303.797C457.699 312.296 454.99 319.224 449.997 324.582C445.15 329.768 438.126 332.736 428.924 333.486C421.944 334.055 414.98 332.867 408.032 329.92C401.085 326.974 395.159 321.867 390.255 314.602C385.35 307.336 382.387 297.437 381.365 284.904C379.865 266.501 382.791 252.449 390.145 242.746C397.498 233.044 407.6 227.668 420.45 226.62C429.334 225.896 437.194 228.29 444.032 233.801C450.856 239.153 454.702 247.143 455.569 257.772L456.263 257.477L455.176 244.15C454.724 238.598 456.075 233.617 459.228 229.208C462.528 224.627 467.985 222.026 475.599 221.405ZM436.92 264.084C431.526 264.524 427.393 265.739 424.521 267.73C421.807 269.708 420.638 272.998 421.013 277.599C421.712 286.165 427.773 289.983 439.195 289.051C446.65 288.443 451.802 286.985 454.648 284.678C457.494 282.369 458.737 278.994 458.375 274.552C457.999 269.951 456.154 266.907 452.839 265.421C449.682 263.922 444.376 263.476 436.92 264.084Z" fill="#FEDE8D"/>
<path d="M504.345 249.322C503.893 242.914 505.468 237.637 509.07 233.489C512.81 229.182 518.182 226.782 525.185 226.288C532.636 225.763 538.286 227.312 542.136 230.935C546.134 234.546 548.359 239.556 548.811 245.964C549.252 252.223 547.746 257.421 544.294 261.558C540.98 265.535 535.597 267.786 528.147 268.311C520.845 268.826 515.125 267.357 510.988 263.905C506.99 260.293 504.775 255.432 504.345 249.322Z" fill="#FEDE8D"/>
<path d="M536.763 390.58C529.759 391.074 524.407 389.504 520.706 385.871C517.006 382.238 514.951 377.516 514.541 371.704L509.154 295.258C508.703 288.85 510.059 283.663 513.224 279.696C516.389 275.729 521.474 273.499 528.477 273.005C535.481 272.512 540.828 274.007 544.518 277.491C548.357 280.964 550.492 285.756 550.922 291.866L556.341 368.759C556.75 374.57 555.229 379.545 551.776 383.681C548.473 387.808 543.469 390.107 536.763 390.58Z" fill="#FEDE8D"/>
<path d="M583.412 363.972C576.855 364.429 571.43 362.86 567.136 359.265C562.981 355.511 560.702 350.728 560.297 344.916L555.145 270.925C554.71 264.666 556.204 259.246 559.629 254.664C563.054 250.083 568.268 247.549 575.272 247.061C582.128 246.584 587.494 248.382 591.371 252.454C595.249 256.527 597.416 261.842 597.873 268.399L598.651 279.576L602.674 279.296C602.083 270.802 603.106 263.992 605.744 258.866C608.532 253.731 612.237 249.953 616.86 247.535C621.474 244.968 626.165 243.518 630.934 243.186C642.409 242.387 651.119 245.973 657.065 253.945C663.001 261.768 666.498 273.28 667.556 288.481L670.949 337.212C671.353 343.024 669.759 348.077 666.164 352.371C662.559 356.515 657.478 358.815 650.921 359.272C644.215 359.739 638.715 358.175 634.421 354.581C630.267 350.827 627.987 346.044 627.582 340.232L624.827 300.665C624.454 295.3 623.12 291.2 620.826 288.365C618.682 285.519 615.672 284.231 611.797 284.501C607.326 284.812 604.162 286.68 602.304 290.104C600.595 293.517 599.917 297.757 600.269 302.824L602.993 341.944C603.398 347.756 601.877 352.803 598.432 357.086C594.976 361.22 589.969 363.516 583.412 363.972Z" fill="#FEDE8D"/>
<path d="M668.392 269.37C667.789 266.105 668.459 263.347 670.403 261.097C672.322 258.716 675.765 257.067 680.731 256.15C684.354 255.481 687.654 254.939 690.631 254.524C693.717 253.954 695.731 253.582 696.67 253.409L693.741 245.439C693.008 245.98 691.641 246.841 689.638 248.021C687.611 249.071 684.585 249.967 680.559 250.711C673.983 251.925 667.953 251.215 662.471 248.58C656.964 245.815 653.511 240.644 652.112 233.067C650.64 225.099 651.824 218.734 655.663 213.972C659.637 209.186 665.314 206.111 672.695 204.748C680.211 203.36 686.612 204.204 691.898 207.281C697.185 210.357 700.564 215.879 702.036 223.848C702.904 228.55 703.589 233.76 704.089 239.476C704.7 245.037 704.603 250.526 703.799 255.942C703.13 261.334 701.285 265.998 698.264 269.933C695.354 273.712 690.812 276.172 684.639 277.312C679.673 278.229 675.881 277.984 673.261 276.576C670.618 275.038 668.995 272.636 668.392 269.37Z" fill="#FEDE8D"/>
<path d="M184.015 463.289C178.093 464.681 172.834 464.105 168.236 461.561C163.757 458.99 160.808 454.684 159.388 448.644C157.996 442.722 158.54 437.595 161.021 433.262C163.593 428.783 168.195 425.764 174.827 424.205L251.396 406.205C258.028 404.645 263.434 405.312 267.613 408.204C271.883 410.949 274.714 415.283 276.106 421.205C277.526 427.245 276.745 432.428 273.762 436.754C270.898 441.051 266.505 443.896 260.584 445.288C256.557 446.235 253.202 446.586 250.52 446.342C247.929 445.951 245.724 445.345 243.906 444.522C242.06 443.581 240.329 442.864 238.713 442.369C237.069 441.755 235.181 441.699 233.049 442.2L232.202 445.774C232.926 446.729 234.117 448.073 235.775 449.808C237.405 451.425 239.184 453.944 241.113 457.364C243.015 460.667 244.689 465.398 246.137 471.556L258.207 522.898C259.348 527.754 258.459 532.212 255.539 536.273C252.738 540.306 248.732 542.935 243.521 544.16C238.191 545.413 233.315 544.872 228.891 542.538C224.587 540.175 221.863 536.566 220.722 531.71L208.652 480.368C207.204 474.21 206.596 469.229 206.826 465.425C207.029 461.503 207.5 458.455 208.239 456.282C209.068 453.962 209.595 452.214 209.818 451.036L207.29 448.256C205.158 448.757 203.492 449.649 202.294 450.93C201.068 452.093 199.838 453.507 198.604 455.172C197.343 456.718 195.64 458.244 193.494 459.748C191.32 461.134 188.16 462.314 184.015 463.289Z" fill="#FEDE8D"/>
<path d="M272.028 402.108C271.362 396.362 272.565 391.549 275.637 387.672C278.827 383.645 283.563 381.268 289.844 380.54C296.526 379.765 301.672 380.929 305.283 384.032C309.026 387.12 311.231 391.537 311.898 397.283C312.548 402.896 311.404 407.634 308.466 411.496C305.646 415.209 300.895 417.452 294.213 418.227C287.664 418.986 282.459 417.897 278.597 414.958C274.853 411.871 272.663 407.588 272.028 402.108Z" fill="#FEDE8D"/>
<path d="M306.924 527.881C300.643 528.61 295.764 527.414 292.287 524.296C288.811 521.178 286.77 517.012 286.166 511.8L278.219 443.241C277.553 437.495 278.563 432.773 281.249 429.075C283.936 425.378 288.419 423.165 294.701 422.437C300.982 421.709 305.853 422.837 309.314 425.822C312.909 428.791 315.024 433.015 315.659 438.495L323.653 507.455C324.257 512.667 323.09 517.204 320.152 521.066C317.347 524.912 312.938 527.184 306.924 527.881Z" fill="#FEDE8D"/>
<path d="M348.087 515.417C342.049 515.855 337.092 514.462 333.216 511.236C329.464 507.866 327.398 503.564 327.019 498.331L322.185 431.708C321.776 426.072 323.107 421.187 326.18 417.052C329.386 412.908 334.143 410.606 340.449 410.149C346.622 409.701 351.392 411.311 354.761 414.978C358.13 418.646 360.028 423.431 360.457 429.336L361.187 439.4L364.81 439.137C363.982 427.731 365.823 419.639 370.333 414.86C374.832 409.947 380.638 407.233 387.75 406.717C396.874 406.055 403.788 408.386 408.491 413.71C413.194 419.034 415.876 426.259 416.538 435.383L420.161 435.121C419.606 427.472 420.443 421.341 422.671 416.728C424.899 412.115 427.891 408.728 431.646 406.567C435.526 404.262 439.612 402.954 443.906 402.642C452.628 402.009 459.153 403.627 463.481 407.495C467.942 411.352 471.03 416.726 472.744 423.616C474.458 430.506 475.631 438.313 476.264 447.035L479.185 487.29C479.565 492.523 478.074 497.083 474.714 500.969C471.479 504.711 466.909 506.796 461.004 507.224C455.1 507.653 450.21 506.254 446.334 503.028C442.448 499.668 440.315 495.371 439.936 490.138L437.351 454.512C437 449.681 436.124 445.968 434.721 443.372C433.319 440.776 430.806 439.609 427.183 439.872C423.292 440.154 420.849 441.815 419.856 444.855C418.997 447.885 418.733 451.681 419.064 456.243L421.619 491.467C421.999 496.7 420.643 501.25 417.551 505.116C414.45 508.849 409.947 510.929 404.043 511.357C398.004 511.796 393.047 510.402 389.171 507.176C385.419 503.806 383.354 499.504 382.974 494.271L380.389 458.645C380.038 453.814 379.162 450.101 377.76 447.505C376.357 444.909 373.912 443.737 370.423 443.99C366.531 444.273 364.156 445.929 363.297 448.959C362.572 451.979 362.375 455.77 362.706 460.332L365.261 495.556C365.641 500.789 364.352 505.334 361.395 509.191C358.427 512.914 353.992 514.989 348.087 515.417Z" fill="#FEDE8D"/>
<path d="M524.541 401.209C533.078 399.748 541.001 399.996 548.31 401.953C555.754 403.887 561.893 407.161 566.728 411.773C571.539 416.25 574.478 421.605 575.544 427.838C576.657 434.343 575.549 439.274 572.219 442.634C568.888 445.993 563.496 448.312 556.043 449.587L513.358 456.892C513.961 460.415 515.814 463.097 518.918 464.936C522.158 466.753 527.098 467.093 533.738 465.957C537.126 465.377 540.185 464.505 542.915 463.34C545.78 462.153 548.657 461.033 551.545 459.981C554.546 458.77 557.944 457.84 561.738 457.19C567.159 456.263 571.966 457.463 576.162 460.789C580.335 463.981 583.001 468.964 584.161 475.739C585.529 483.734 582.462 490.676 574.961 496.562C567.596 502.425 557.273 506.493 543.993 508.766C534.643 510.366 525.522 510.044 516.63 507.8C507.873 505.533 500.248 500.909 493.753 493.931C487.236 486.817 482.91 477.026 480.776 464.559C478.944 453.854 479.433 444.077 482.242 435.228C485.187 426.355 490.195 418.942 497.267 412.99C504.473 407.014 513.565 403.087 524.541 401.209ZM528.486 435.264C522.523 436.284 518.272 438.337 515.732 441.422C513.327 444.484 512.355 447.369 512.819 450.08L545.138 444.549C547.171 444.201 547.686 443.137 546.684 441.355C545.818 439.551 543.855 437.864 540.797 436.295C537.739 434.727 533.635 434.382 528.486 435.264Z" fill="#FEDE8D"/>
<path d="M297.834 243.537C292.427 244.652 287.68 243.915 283.593 241.327C279.506 238.738 276.941 234.917 275.899 229.863L256.673 136.595C255.606 131.424 256.355 126.735 258.92 122.531C261.601 118.302 265.704 115.618 271.229 114.479C277.106 113.268 282.053 114.086 286.071 116.934C290.182 119.64 292.759 123.52 293.801 128.574L313.1 222.194C314.142 227.248 313.181 231.796 310.215 235.838C307.368 239.856 303.24 242.423 297.834 243.537Z" fill="#FEDE8D"/>
<path d="M365.094 235.65C358.72 236.266 352.81 235.398 347.364 233.049C342.038 230.687 337.68 227.034 334.29 222.089C330.888 217.026 328.843 210.933 328.155 203.81L325.129 172.47L318.541 174.005C314.979 174.828 311.672 173.889 308.62 171.189C305.567 168.488 303.823 164.882 303.388 160.371C302.952 155.86 303.98 152.046 306.471 148.93C308.95 145.695 312.016 144.141 315.67 144.268L322.43 144.514L321.081 132.422C320.502 127.686 321.524 123.813 324.146 120.804C326.758 117.676 330.829 115.845 336.361 115.311C341.893 114.777 346.299 115.789 349.581 118.348C352.851 120.788 354.595 124.394 354.813 129.166L355.621 141.309L365.061 139.139C371.463 137.563 376.509 138.274 380.197 141.273C383.873 144.153 385.929 147.848 386.365 152.359C386.801 156.871 385.495 160.951 382.449 164.6C379.511 168.118 374.876 169.764 368.542 169.537L358.32 169.266L360.882 195.798C361.031 197.341 361.71 198.713 362.918 199.915C364.115 200.997 365.472 201.226 366.99 200.6C368.748 199.951 370.514 198.762 372.289 197.033C374.185 195.292 376.696 194.271 379.823 193.969C384.513 193.516 388.281 194.83 391.127 197.91C393.973 200.99 395.632 204.964 396.101 209.831C396.468 213.63 395.441 217.443 393.019 221.272C390.705 224.97 387.187 228.125 382.462 230.738C377.738 233.351 371.949 234.988 365.094 235.65Z" fill="#FEDE8D"/>
<path d="M384.66 136.734C384.598 133.734 385.569 131.373 387.574 129.651C389.576 127.809 392.797 126.841 397.236 126.749C400.476 126.682 403.417 126.68 406.059 126.746C408.819 126.688 410.618 126.651 411.458 126.633L410.041 119.1C409.329 119.475 408.02 120.043 406.115 120.803C404.208 121.442 401.455 121.8 397.855 121.875C391.976 121.997 386.843 120.483 382.456 117.334C378.067 114.064 375.799 108.95 375.655 101.991C375.502 94.6715 377.428 89.1697 381.433 85.4853C385.558 81.7983 390.919 79.8862 397.519 79.7489C404.238 79.609 409.674 81.2964 413.829 84.8111C417.983 88.3257 420.137 93.7425 420.289 101.062C420.379 105.381 420.237 110.125 419.865 115.295C419.61 120.342 418.751 125.221 417.289 129.933C415.946 134.642 413.686 138.53 410.509 141.597C407.45 144.542 403.16 146.072 397.641 146.187C393.201 146.279 389.944 145.506 387.87 143.869C385.792 142.112 384.723 139.733 384.66 136.734Z" fill="#FEDE8D"/>
<path d="M459.216 218.588C451.292 218.733 443.928 218.121 437.125 216.753C430.435 215.267 425.049 212.895 420.969 209.639C416.886 206.267 414.793 201.767 414.69 196.14C414.599 191.201 416.018 187.097 418.945 183.827C421.872 180.556 425.805 178.876 430.743 178.786C433.844 178.729 436.954 179.189 440.074 180.166C443.306 181.025 446.711 181.882 450.288 182.736C453.865 183.589 457.721 183.978 461.855 183.902C465.53 183.835 467.996 183.618 469.253 183.25C470.508 182.767 471.125 181.952 471.104 180.803C471.079 179.425 470.258 178.521 468.642 178.091C467.14 177.659 464.546 177.132 460.858 176.511L448.411 174.326C443.224 173.387 438.146 172.159 433.179 170.642C428.324 169.007 424.258 166.554 420.981 163.283C417.819 160.009 416.186 155.501 416.08 149.759C415.937 141.949 419.271 135.799 426.082 131.309C433.008 126.817 443.074 124.449 456.281 124.207C463.861 124.069 470.651 124.691 476.65 126.074C482.764 127.456 487.629 129.607 491.243 132.528C494.856 135.334 496.703 138.919 496.783 143.283C496.984 147.989 495.79 151.803 493.201 154.722C490.612 157.642 487.308 159.138 483.288 159.212C480.417 159.264 477.482 158.973 474.484 158.339C471.598 157.588 468.425 156.842 464.965 156.101C461.617 155.243 457.761 154.797 453.394 154.762C450.289 154.589 447.766 154.808 445.824 155.418C443.882 156.028 442.923 156.964 442.946 158.228C442.971 159.606 444.138 160.561 446.445 161.093C448.75 161.51 452.207 162.079 456.816 162.799L469.088 164.814C476.576 165.941 482.52 167.44 486.92 169.312C491.433 171.068 494.696 173.593 496.709 176.888C498.722 180.183 499.783 184.758 499.89 190.616C500.001 196.702 498.315 201.846 494.83 206.045C491.459 210.128 486.69 213.202 480.524 215.268C474.358 217.334 467.256 218.441 459.216 218.588Z" fill="#FEDE8D"/>
<path d="M580.396 393.309C580.388 388.463 581.312 383.979 583.169 379.855C585.165 375.601 588.28 372.25 592.516 369.803C596.755 367.222 602.17 366.017 608.76 366.189C615.485 366.364 620.829 367.849 624.794 370.644C628.897 373.308 631.766 376.815 633.402 381.164C635.177 385.383 635.933 389.911 635.673 394.749C635.423 399.184 634.641 403.336 633.329 407.205C632.017 411.073 630.5 415.071 628.777 419.198C627.058 423.191 625.461 427.658 623.987 432.599C622.516 437.406 621.496 442.965 620.928 449.275C620.388 454.51 618.807 458.372 616.185 460.86C613.566 463.215 610.24 464.339 606.205 464.234C602.035 464.125 598.705 462.827 596.212 460.34C593.72 457.852 592.41 453.915 592.281 448.529C592.042 442.197 591.313 436.593 590.095 431.716C588.879 426.705 587.517 422.161 586.009 418.084C584.504 413.872 583.196 409.801 582.088 405.869C580.979 401.937 580.415 397.75 580.396 393.309ZM604.664 523.344C596.729 523.137 590.597 520.891 586.267 516.606C581.941 512.186 579.869 506.48 580.051 499.486C580.237 492.358 582.607 486.633 587.161 482.31C591.849 477.991 598.094 475.933 605.895 476.137C613.426 476.333 619.353 478.708 623.676 483.262C628.002 487.681 630.072 493.455 629.886 500.583C629.704 507.577 627.405 513.17 622.989 517.361C618.573 521.553 612.465 523.547 604.664 523.344Z" fill="#FEDE8D"/>
</g>
<defs>
<filter id="filter0_diii_71_110" x="-25" y="-29" width="848.961" height="680.577" filterUnits="userSpaceOnUse" color-interpolation-filters="sRGB">
<feFlood flood-opacity="0" result="BackgroundImageFix"/>
<feColorMatrix in="SourceAlpha" type="matrix" values="0 0 0 0 0 0 0 0 0 0 0 0 0 0 0 0 0 0 127 0" result="hardAlpha"/>
<feOffset/>
<feGaussianBlur stdDeviation="39.5"/>
<feComposite in2="hardAlpha" operator="out"/>
<feColorMatrix type="matrix" values="0 0 0 0 0 0 0 0 0 0 0 0 0 0 0 0 0 0 0.3 0"/>
<feBlend mode="normal" in2="BackgroundImageFix" result="effect1_dropShadow_71_110"/>
<feBlend mode="normal" in="SourceGraphic" in2="effect1_dropShadow_71_110" result="shape"/>
<feColorMatrix in="SourceAlpha" type="matrix" values="0 0 0 0 0 0 0 0 0 0 0 0 0 0 0 0 0 0 127 0" result="hardAlpha"/>
<feOffset dy="-10"/>
<feGaussianBlur stdDeviation="2"/>
<feComposite in2="hardAlpha" operator="arithmetic" k2="-1" k3="1"/>
<feColorMatrix type="matrix" values="0 0 0 0 0.795861 0 0 0 0 0.571784 0 0 0 0 0 0 0 0 0.21 0"/>
<feBlend mode="normal" in2="shape" result="effect2_innerShadow_71_110"/>
<feColorMatrix in="SourceAlpha" type="matrix" values="0 0 0 0 0 0 0 0 0 0 0 0 0 0 0 0 0 0 127 0" result="hardAlpha"/>
<feOffset dy="10"/>
<feGaussianBlur stdDeviation="2.5"/>
<feComposite in2="hardAlpha" operator="arithmetic" k2="-1" k3="1"/>
<feColorMatrix type="matrix" values="0 0 0 0 1 0 0 0 0 1 0 0 0 0 1 0 0 0 0.27 0"/>
<feBlend mode="normal" in2="effect2_innerShadow_71_110" result="effect3_innerShadow_71_110"/>
<feColorMatrix in="SourceAlpha" type="matrix" values="0 0 0 0 0 0 0 0 0 0 0 0 0 0 0 0 0 0 127 0" result="hardAlpha"/>
<feOffset/>
<feGaussianBlur stdDeviation="8.5"/>
<feComposite in2="hardAlpha" operator="arithmetic" k2="-1" k3="1"/>
<feColorMatrix type="matrix" values="0 0 0 0 0.992157 0 0 0 0 0.878431 0 0 0 0 0.588235 0 0 0 1 0"/>
<feBlend mode="normal" in2="effect3_innerShadow_71_110" result="effect4_innerShadow_71_110"/>
</filter>
</defs>
</svg>
