<svg fill="none" height="624" viewBox="0 0 784 624" width="784" xmlns="http://www.w3.org/2000/svg" xmlns:xlink="http://www.w3.org/1999/xlink"><filter id="a" color-interpolation-filters="sRGB" filterUnits="userSpaceOnUse" height="680.577" width="848.961" x="-25" y="-29"><feFlood flood-opacity="0" result="BackgroundImageFix"/><feColorMatrix in="SourceAlpha" result="hardAlpha" type="matrix" values="0 0 0 0 0 0 0 0 0 0 0 0 0 0 0 0 0 0 127 0"/><feOffset/><feGaussianBlur stdDeviation="39.5"/><feComposite in2="hardAlpha" operator="out"/><feColorMatrix type="matrix" values="0 0 0 0 0 0 0 0 0 0 0 0 0 0 0 0 0 0 0.3 0"/><feBlend in2="BackgroundImageFix" mode="normal" result="effect1_dropShadow_71_110"/><feColorMatrix in="SourceAlpha" result="hardAlpha" type="matrix" values="0 0 0 0 0 0 0 0 0 0 0 0 0 0 0 0 0 0 127 0"/><feOffset dy="18"/><feGaussianBlur stdDeviation="5.5"/><feComposite in2="hardAlpha" operator="out"/><feColorMatrix type="matrix" values="0 0 0 0 0 0 0 0 0 0 0 0 0 0 0 0 0 0 0.29 0"/><feBlend in2="effect1_dropShadow_71_110" mode="normal" result="effect2_dropShadow_71_110"/><feBlend in="SourceGraphic" in2="effect2_dropShadow_71_110" mode="normal" result="shape"/><feColorMatrix in="SourceAlpha" result="hardAlpha" type="matrix" values="0 0 0 0 0 0 0 0 0 0 0 0 0 0 0 0 0 0 127 0"/><feOffset dy="-10"/><feGaussianBlur stdDeviation="2"/><feComposite in2="hardAlpha" k2="-1" k3="1" operator="arithmetic"/><feColorMatrix type="matrix" values="0 0 0 0 0.795861 0 0 0 0 0.571784 0 0 0 0 0 0 0 0 0.21 0"/><feBlend in2="shape" mode="normal" result="effect3_innerShadow_71_110"/><feColorMatrix in="SourceAlpha" result="hardAlpha" type="matrix" values="0 0 0 0 0 0 0 0 0 0 0 0 0 0 0 0 0 0 127 0"/><feOffset dy="10"/><feGaussianBlur stdDeviation="2.5"/><feComposite in2="hardAlpha" k2="-1" k3="1" operator="arithmetic"/><feColorMatrix type="matrix" values="0 0 0 0 1 0 0 0 0 1 0 0 0 0 1 0 0 0 0.27 0"/><feBlend in2="effect3_innerShadow_71_110" mode="normal" result="effect4_innerShadow_71_110"/><feColorMatrix in="SourceAlpha" result="hardAlpha" type="matrix" values="0 0 0 0 0 0 0 0 0 0 0 0 0 0 0 0 0 0 127 0"/><feOffset/><feGaussianBlur stdDeviation="8.5"/><feComposite in2="hardAlpha" k2="-1" k3="1" operator="arithmetic"/><feColorMatrix type="matrix" values="0 0 0 0 0.992157 0 0 0 0 0.878431 0 0 0 0 0.588235 0 0 0 1 0"/><feBlend in2="effect4_innerShadow_71_110" mode="normal" result="effect5_innerShadow_71_110"/></filter><g fill="#fede8d" filter="url(#a)"><path d="m135.856 258.904c17.586-2.602 32.413-1.397 44.48 3.613 12.193 4.841 21.846 12.927 28.958 24.258 7.239 11.161 12.083 25.017 14.531 41.568 4.111 27.782 1.142 49.06-8.903 63.836-10.046 14.775-27.409 23.989-52.088 27.64l-9.753 1.443c-7.242 1.071-14.075 1.327-20.5.767-6.426-.559-12.287-2.41-17.585-5.552-5.319-3.291-9.833-8.287-13.543-14.986-3.7089-6.7-6.3943-15.665-8.0559-26.896-1.5522-10.492-1.4927-19.789.1782-27.889 1.8187-8.121 4.3837-14.768 7.6957-19.94 3.312-5.171 6.518-8.514 9.616-10.03l-1.731-4.048-3.768.558c-6.7983 1.006-12.5097-.339-17.1337-4.034-4.4981-3.865-7.3674-9.481-8.6083-16.848s-.1943-13.563 3.1398-18.587c3.4601-5.193 8.5893-8.292 15.3869-9.298zm-1.043 45.005c-2.808.416-4.852 1.398-6.133 2.946-1.155 1.379-1.492 3.695-1.011 6.946l7.641 51.648c.459 3.104 1.441 5.148 2.946 6.133 1.652.964 3.882 1.238 6.69.823l11.97-1.771c7.537-1.115 13.134-3.605 16.79-7.468 3.657-3.863 5.927-8.427 6.809-13.692 1.008-5.435 1.085-11.034.233-16.797-.853-5.763-2.559-11.174-5.119-16.231-2.413-5.08-5.94-9.013-10.58-11.8-4.641-2.786-10.73-3.623-18.266-2.508z"/><path d="m210.189 225.846c-.941-6.355.225-11.737 3.499-16.149 3.399-4.58 8.571-7.385 15.516-8.414 7.389-1.094 13.141.017 17.257 3.334 4.263 3.295 6.865 8.12 7.806 14.474.92 6.207-.183 11.505-3.309 15.894-2.999 4.219-8.193 6.876-15.582 7.971-7.241 1.072-13.056.046-17.445-3.08-4.264-3.295-6.844-7.972-7.742-14.03z"/><path d="m253.333 364.205c-6.945 1.029-12.402-.126-16.37-3.465s-6.378-7.89-7.232-13.653l-11.227-75.809c-.941-6.354.014-11.63 2.866-15.828 2.851-4.198 7.75-6.811 14.695-7.839 6.946-1.029 12.391.052 16.337 3.243 4.094 3.169 6.59 7.783 7.487 13.842l11.293 76.252c.853 5.763-.282 10.839-3.408 15.229-2.977 4.367-7.791 7.043-14.441 8.028z"/><path d="m349.257 242.371c7.257-1.195 12.768-.13 16.532 3.196 3.882 3.161 6.234 7.232 7.054 12.212l11.29 67.204c2.58 14.777 2.805 27.675.674 38.696-1.988 10.998-6.807 19.904-14.455 26.718-7.505 6.791-18.301 11.346-32.39 13.667-8.68 1.43-16.233 1.725-22.656.883-6.282-.865-12.514-2.763-18.697-5.691-5.401-2.618-9.601-6.823-12.601-12.614s-3.024-12.145-.071-19.063c1.928-4.264 4.341-7.365 7.237-9.304 3.038-1.962 6.075-3.047 9.111-3.255 3.154-.373 5.963-.179 8.427.585 5.38 1.598 9.516 2.745 12.407 3.438 3.01.527 6.293.497 9.851-.089 5.265-.867 9.372-3.443 12.32-7.729 3.091-4.31 4.085-9.809 2.984-16.497l-2.849-17.29-3.842.633c.246 7.706-1.687 14.164-5.799 19.372-3.993 5.043-10.115 8.244-18.369 9.604-6.261 1.031-12.639.474-19.131-1.672-6.493-2.147-12.223-6.319-17.19-12.516-4.967-6.198-8.377-14.918-10.229-26.16-2.719-16.508-1.118-29.415 4.803-38.722 5.922-9.306 14.645-14.909 26.172-16.808 7.969-1.313 15.245.265 21.828 4.735 6.56 4.328 10.625 11.259 12.196 20.794l.604-.32-1.969-11.953c-.82-4.98.031-9.579 2.552-13.794 2.64-4.382 7.375-7.135 14.206-8.26zm-31.767 41.408c-4.838.797-8.48 2.202-10.926 4.212-2.304 1.988-3.116 5.045-2.436 9.172 1.266 7.684 7.022 10.683 17.268 8.995 6.688-1.102 11.232-2.801 13.631-5.096s3.27-5.436 2.614-9.42c-.68-4.127-2.572-6.739-5.676-7.835-2.962-1.12-7.787-1.129-14.475-.028z"/><path d="m475.599 221.405c8.091-.66 14.057 1.01 17.896 5.008 3.985 3.828 6.204 8.517 6.657 14.069l6.351 74.941c1.504 16.486.586 30.694-2.753 42.625-3.18 11.917-9.284 21.278-18.311 28.083-8.869 6.791-21.156 10.827-36.862 12.108-9.677.789-18.01.431-25-1.075-6.831-1.519-13.516-4.169-20.052-7.948-5.704-3.367-9.945-8.371-12.722-15.011-2.777-6.641-2.229-13.633 1.643-20.976 2.507-4.516 5.44-7.71 8.801-9.581 3.519-1.884 6.958-2.802 10.316-2.756 3.502-.126 6.575.341 9.216 1.404 5.773 2.244 10.218 3.877 13.335 4.901 3.264.851 6.879 1.116 10.845.793 5.87-.479 10.619-2.943 14.249-7.391 3.789-4.461 5.379-10.42 4.771-17.876l-1.572-19.275-4.283.349c-.425 8.499-3.134 15.427-8.127 20.785-4.847 5.186-11.871 8.154-21.073 8.904-6.98.569-13.944-.619-20.892-3.566-6.947-2.946-12.873-8.053-17.777-15.318-4.905-7.266-7.868-17.165-8.89-29.698-1.5-18.403 1.426-32.455 8.78-42.158 7.353-9.702 17.455-15.078 30.305-16.126 8.884-.724 16.744 1.67 23.582 7.181 6.824 5.352 10.67 13.342 11.537 23.971l.694-.295-1.087-13.327c-.452-5.552.899-10.533 4.052-14.942 3.3-4.581 8.757-7.182 16.371-7.803zm-38.679 42.679c-5.394.44-9.527 1.655-12.399 3.646-2.714 1.978-3.883 5.268-3.508 9.869.699 8.566 6.76 12.384 18.182 11.452 7.455-.608 12.607-2.066 15.453-4.373 2.846-2.309 4.089-5.684 3.727-10.126-.376-4.601-2.221-7.645-5.536-9.131-3.157-1.499-8.463-1.945-15.919-1.337z"/><path d="m504.345 249.322c-.452-6.408 1.123-11.685 4.725-15.833 3.74-4.307 9.112-6.707 16.115-7.201 7.451-.525 13.101 1.024 16.951 4.647 3.998 3.611 6.223 8.621 6.675 15.029.441 6.259-1.065 11.457-4.517 15.594-3.314 3.977-8.697 6.228-16.147 6.753-7.302.515-13.022-.954-17.159-4.406-3.998-3.612-6.213-8.473-6.643-14.583z"/><path d="m536.763 390.58c-7.004.494-12.356-1.076-16.057-4.709-3.7-3.633-5.755-8.355-6.165-14.167l-5.387-76.446c-.451-6.408.905-11.595 4.07-15.562s8.25-6.197 15.253-6.691c7.004-.493 12.351 1.002 16.041 4.486 3.839 3.473 5.974 8.265 6.404 14.375l5.419 76.893c.409 5.811-1.112 10.786-4.565 14.922-3.303 4.127-8.307 6.426-15.013 6.899z"/><path d="m583.412 363.972c-6.557.457-11.982-1.112-16.276-4.707-4.155-3.754-6.434-8.537-6.839-14.349l-5.152-73.991c-.435-6.259 1.059-11.679 4.484-16.261 3.425-4.581 8.639-7.115 15.643-7.603 6.856-.477 12.222 1.321 16.099 5.393 3.878 4.073 6.045 9.388 6.502 15.945l.778 11.177 4.023-.28c-.591-8.494.432-15.304 3.07-20.43 2.788-5.135 6.493-8.913 11.116-11.331 4.614-2.567 9.305-4.017 14.074-4.349 11.475-.799 20.185 2.787 26.131 10.759 5.936 7.823 9.433 19.335 10.491 34.536l3.393 48.731c.404 5.812-1.19 10.865-4.785 15.159-3.605 4.144-8.686 6.444-15.243 6.901-6.706.467-12.206-1.097-16.5-4.691-4.154-3.754-6.434-8.537-6.839-14.349l-2.755-39.567c-.373-5.365-1.707-9.465-4.001-12.3-2.144-2.846-5.154-4.134-9.029-3.864-4.471.311-7.635 2.179-9.493 5.603-1.709 3.413-2.387 7.653-2.035 12.72l2.724 39.12c.405 5.812-1.116 10.859-4.561 15.142-3.456 4.134-8.463 6.43-15.02 6.886z"/><path d="m668.392 269.37c-.603-3.265.067-6.023 2.011-8.273 1.919-2.381 5.362-4.03 10.328-4.947 3.623-.669 6.923-1.211 9.9-1.626 3.086-.57 5.1-.942 6.039-1.115l-2.929-7.97c-.733.541-2.1 1.402-4.103 2.582-2.027 1.05-5.053 1.946-9.079 2.69-6.576 1.214-12.606.504-18.088-2.131-5.507-2.765-8.96-7.936-10.359-15.513-1.472-7.968-.288-14.333 3.551-19.095 3.974-4.786 9.651-7.861 17.032-9.224 7.516-1.388 13.917-.544 19.203 2.533 5.287 3.076 8.666 8.598 10.138 16.567.868 4.702 1.553 9.912 2.053 15.628.611 5.561.514 11.05-.29 16.466-.669 5.392-2.514 10.056-5.535 13.991-2.91 3.779-7.452 6.239-13.625 7.379-4.966.917-8.758.672-11.378-.736-2.643-1.538-4.266-3.94-4.869-7.206z"/><path d="m184.015 463.289c-5.922 1.392-11.181.816-15.779-1.728-4.479-2.571-7.428-6.877-8.848-12.917-1.392-5.922-.848-11.049 1.633-15.382 2.572-4.479 7.174-7.498 13.806-9.057l76.569-18c6.632-1.56 12.038-.893 16.217 1.999 4.27 2.745 7.101 7.079 8.493 13.001 1.42 6.04.639 11.223-2.344 15.549-2.864 4.297-7.257 7.142-13.178 8.534-4.027.947-7.382 1.298-10.064 1.054-2.591-.391-4.796-.997-6.614-1.82-1.846-.941-3.577-1.658-5.193-2.153-1.644-.614-3.532-.67-5.664-.169l-.847 3.574c.724.955 1.915 2.299 3.573 4.034 1.63 1.617 3.409 4.136 5.338 7.556 1.902 3.303 3.576 8.034 5.024 14.192l12.07 51.342c1.141 4.856.252 9.314-2.668 13.375-2.801 4.033-6.807 6.662-12.018 7.887-5.33 1.253-10.206.712-14.63-1.622-4.304-2.363-7.028-5.972-8.169-10.828l-12.07-51.342c-1.448-6.158-2.056-11.139-1.826-14.943.203-3.922.674-6.97 1.413-9.143.829-2.32 1.356-4.068 1.579-5.246l-2.528-2.78c-2.132.501-3.798 1.393-4.996 2.674-1.226 1.163-2.456 2.577-3.69 4.242-1.261 1.546-2.964 3.072-5.11 4.576-2.174 1.386-5.334 2.566-9.479 3.541z"/><path d="m272.028 402.108c-.666-5.746.537-10.559 3.609-14.436 3.19-4.027 7.926-6.404 14.207-7.132 6.682-.775 11.828.389 15.439 3.492 3.743 3.088 5.948 7.505 6.615 13.251.65 5.613-.494 10.351-3.432 14.213-2.82 3.713-7.571 5.956-14.253 6.731-6.549.759-11.754-.33-15.616-3.269-3.744-3.087-5.934-7.37-6.569-12.85z"/><path d="m306.924 527.881c-6.281.729-11.16-.467-14.637-3.585-3.476-3.118-5.517-7.284-6.121-12.496l-7.947-68.559c-.666-5.746.344-10.468 3.03-14.166 2.687-3.697 7.17-5.91 13.452-6.638 6.281-.728 11.152.4 14.613 3.385 3.595 2.969 5.71 7.193 6.345 12.673l7.994 68.96c.604 5.212-.563 9.749-3.501 13.611-2.805 3.846-7.214 6.118-13.228 6.815z"/><path d="m349.852 516.003c-6.022.623-11.019-.618-14.993-3.724-3.853-3.253-6.05-7.489-6.59-12.708l-6.875-66.444c-.582-5.62.599-10.544 3.543-14.771 3.078-4.241 7.762-6.687 14.051-7.338 6.156-.637 10.974.826 14.454 4.388 3.479 3.562 5.523 8.288 6.133 14.176l1.038 10.037 3.614-.374c-1.177-11.375.414-19.52 4.775-24.435 4.347-5.048 10.067-7.94 17.159-8.674 9.1-.941 16.082 1.177 20.946 6.354s7.767 12.316 8.709 21.416l3.613-.374c-.789-7.628-.141-13.781 1.944-18.461 2.086-4.679 4.972-8.156 8.659-10.431 3.807-2.423 7.852-3.856 12.134-4.299 8.699-.9 15.27.516 19.714 4.249 4.578 3.72 7.829 8.996 9.754 15.83 1.924 6.835 3.337 14.601 4.237 23.3l4.154 40.147c.54 5.219-.809 9.822-4.049 13.809-3.119 3.84-7.623 6.064-13.511 6.673-5.888.61-10.819-.639-14.792-3.744-3.988-3.239-6.251-7.469-6.791-12.688l-3.677-35.53c-.498-4.818-1.488-8.502-2.97-11.054-1.481-2.552-4.028-3.641-7.642-3.267-3.881.402-6.271 2.137-7.171 5.205-.766 3.055-.913 6.858-.442 11.408l3.635 35.129c.54 5.219-.676 9.808-3.648 13.767-2.985 3.826-7.422 6.043-13.31 6.653-6.022.623-11.02-.618-14.993-3.724-3.854-3.253-6.05-7.489-6.59-12.708l-3.677-35.53c-.499-4.818-1.489-8.503-2.97-11.055-1.481-2.551-3.962-3.647-7.441-3.287-3.881.401-6.204 2.13-6.97 5.185-.632 3.041-.713 6.836-.242 11.386l3.635 35.129c.54 5.219-.609 9.801-3.447 13.747-2.851 3.812-7.221 6.022-13.11 6.632z"/><path d="m537.301 397.425c8.643.554 16.294 2.629 22.952 6.224 6.794 3.604 12.009 8.209 15.645 13.815 3.645 5.468 5.265 11.358 4.861 17.669-.422 6.585-2.641 11.126-6.658 13.624-4.018 2.498-9.8 3.506-17.346 3.022l-43.217-2.769c-.229 3.567.954 6.605 3.548 9.113 2.732 2.517 7.459 3.991 14.182 4.422 3.43.219 6.608.078 9.533-.423 3.062-.493 6.12-.916 9.173-1.271 3.2-.484 6.721-.603 10.562-.357 5.488.352 9.888 2.631 13.2 6.839 3.321 4.07 4.762 9.535 4.323 16.395-.519 8.094-5.108 14.138-13.768 18.129-8.522 4-19.506 5.569-32.951 4.707-9.467-.607-18.266-3.03-26.398-7.27-7.994-4.232-14.343-10.494-19.047-18.786-4.694-8.429-6.638-18.955-5.829-31.577.694-10.838 3.432-20.237 8.212-28.197 4.918-7.95 11.506-14.003 19.763-18.158 8.393-4.146 18.147-5.863 29.26-5.151zm-4.042 34.044c-6.037-.387-10.647.627-13.833 3.04-3.048 2.422-4.66 5.005-4.836 7.749l32.722 2.097c2.058.131 2.805-.785 2.242-2.749-.425-1.956-1.944-4.051-4.556-6.285s-6.525-3.518-11.739-3.852z"/><path d="m297.834 245.537c-5.407 1.115-10.154.378-14.241-2.21-4.087-2.589-6.652-6.41-7.694-11.464l-19.226-93.268c-1.067-5.171-.318-9.86 2.247-14.064 2.681-4.229 6.784-6.913 12.309-8.052 5.877-1.211 10.824-.393 14.842 2.455 4.111 2.706 6.688 6.586 7.73 11.64l19.299 93.62c1.042 5.054.081 9.602-2.885 13.644-2.847 4.018-6.975 6.585-12.381 7.699z"/><path d="m365.094 235.65c-6.374.616-12.284-.252-17.73-2.601-5.326-2.362-9.684-6.015-13.074-10.96-3.402-5.063-5.447-11.156-6.135-18.279l-3.026-31.34-6.588 1.535c-3.562.823-6.869-.116-9.921-2.816-3.053-2.701-4.797-6.307-5.232-10.818-.436-4.511.592-8.325 3.083-11.441 2.479-3.235 5.545-4.789 9.199-4.662l6.76.246-1.349-12.092c-.579-4.736.443-8.609 3.065-11.618 2.612-3.128 6.683-4.959 12.215-5.493s9.938.478 13.22 3.037c3.27 2.44 5.014 6.046 5.232 10.818l.808 12.143 9.44-2.17c6.402-1.576 11.448-.865 15.136 2.134 3.676 2.88 5.732 6.575 6.168 11.086.436 4.512-.87 8.592-3.916 12.241-2.938 3.518-7.573 5.164-13.907 4.937l-10.222-.271 2.562 26.532c.149 1.543.828 2.915 2.036 4.117 1.197 1.082 2.554 1.311 4.072.685 1.758-.649 3.524-1.838 5.299-3.567 1.896-1.741 4.407-2.762 7.534-3.064 4.69-.453 8.458.861 11.304 3.941s4.505 7.054 4.974 11.921c.367 3.799-.66 7.612-3.082 11.441-2.314 3.698-5.832 6.853-10.557 9.466-4.724 2.613-10.513 4.25-17.368 4.912z"/><path d="m384.66 136.734c-.062-3 .909-5.361 2.914-7.083 2.002-1.842 5.223-2.81 9.662-2.902 3.24-.067 6.181-.069 8.823-.003 2.76-.058 4.559-.095 5.399-.113l-1.417-7.533c-.712.375-2.021.943-3.926 1.703-1.907.639-4.66.997-8.26 1.072-5.879.122-11.012-1.392-15.399-4.541-4.389-3.27-6.657-8.384-6.801-15.343-.153-7.3195 1.773-12.8213 5.778-16.5057 4.125-3.687 9.486-5.5991 16.086-5.7364 6.719-.1399 12.155 1.5475 16.31 5.0622 4.154 3.5146 6.308 8.9314 6.46 16.2509.09 4.319-.052 9.063-.424 14.233-.255 5.047-1.114 9.926-2.576 14.638-1.343 4.709-3.603 8.597-6.78 11.664-3.059 2.945-7.349 4.475-12.868 4.59-4.44.092-7.697-.681-9.771-2.318-2.078-1.757-3.147-4.136-3.21-7.135z"/><path d="m457.216 219.588c-7.924.145-15.288-.467-22.091-1.835-6.69-1.486-12.076-3.858-16.156-7.114-4.083-3.372-6.176-7.872-6.279-13.499-.091-4.938 1.328-9.043 4.255-12.313 2.927-3.271 6.86-4.951 11.798-5.041 3.101-.057 6.211.403 9.331 1.38 3.232.859 6.637 1.716 10.214 2.57 3.577.853 7.433 1.242 11.567 1.166 3.675-.067 6.141-.284 7.398-.652 1.255-.483 1.872-1.298 1.851-2.447-.025-1.378-.846-2.282-2.462-2.712-1.502-.432-4.096-.959-7.784-1.58l-12.447-2.185c-5.187-.939-10.265-2.167-15.232-3.684-4.855-1.635-8.921-4.088-12.198-7.359-3.162-3.274-4.795-7.782-4.901-13.524-.143-7.81 3.191-13.96 10.002-18.45 6.926-4.492 16.992-6.86 30.199-7.102 7.58-.138 14.37.484 20.369 1.867 6.114 1.382 10.979 3.533 14.593 6.454 3.613 2.806 5.46 6.391 5.54 10.755.201 4.706-.993 8.52-3.582 11.439-2.589 2.92-5.893 4.416-9.913 4.49-2.871.052-5.806-.239-8.804-.873-2.886-.751-6.059-1.497-9.519-2.238-3.348-.858-7.204-1.304-11.571-1.339-3.105-.173-5.628.046-7.57.656s-2.901 1.546-2.878 2.81c.025 1.378 1.192 2.333 3.499 2.865 2.305.417 5.762.986 10.371 1.706l12.272 2.015c7.488 1.127 13.432 2.626 17.832 4.498 4.513 1.756 7.776 4.281 9.789 7.576s3.074 7.87 3.181 13.728c.111 6.086-1.575 11.23-5.06 15.429-3.371 4.083-8.14 7.157-14.306 9.223s-13.268 3.173-21.308 3.32z"/><path d="m578.396 394.309c-.008-4.846.916-9.33 2.773-13.454 1.996-4.254 5.111-7.605 9.347-10.052 4.239-2.581 9.654-3.786 16.244-3.614 6.725.175 12.069 1.66 16.034 4.455 4.103 2.664 6.972 6.171 8.608 10.52 1.775 4.219 2.531 8.747 2.271 13.585-.25 4.435-1.032 8.587-2.344 12.456-1.312 3.868-2.829 7.866-4.552 11.993-1.719 3.993-3.316 8.46-4.79 13.401-1.471 4.807-2.491 10.366-3.059 16.676-.54 5.235-2.121 9.097-4.743 11.585-2.619 2.355-5.945 3.479-9.98 3.374-4.169-.109-7.5-1.407-9.993-3.894-2.492-2.488-3.802-6.425-3.931-11.811-.239-6.332-.968-11.936-2.186-16.813-1.215-5.011-2.577-9.555-4.086-13.632-1.505-4.212-2.812-8.283-3.921-12.215s-1.673-8.119-1.692-12.56zm24.268 130.035c-7.935-.207-14.067-2.453-18.397-6.738-4.326-4.42-6.398-10.126-6.215-17.12.185-7.128 2.555-12.853 7.109-17.176 4.688-4.319 10.933-6.377 18.734-6.173 7.531.196 13.458 2.571 17.781 7.125 4.326 4.419 6.396 10.193 6.21 17.321-.182 6.994-2.481 12.587-6.897 16.778-4.416 4.192-10.524 6.186-18.325 5.983z"/></g></svg>